<svg width="40" height="40" viewBox="0 0 40 40" fill="none" xmlns="http://www.w3.org/2000/svg">
<path d="M11.0479 13.2422C11.0479 11.8463 11.0371 10.5635 11.0154 9.39401C10.9992 8.23076 10.9802 7.21528 10.9586 6.34756C10.9369 5.47984 10.918 4.79132 10.9017 4.28201C10.88 3.77898 10.8692 3.48031 10.8692 3.38599C10.6038 3.17221 10.3033 3.05588 9.96751 3.03702C9.63173 3.02445 9.29867 3.01816 8.96832 3.01816C8.50257 3.01816 7.94747 3.14391 7.30301 3.39542C6.65313 3.64694 6.02491 4.00849 5.41836 4.48008C4.80639 4.94537 4.2892 5.52071 3.86678 6.20608C3.44435 6.89146 3.23314 7.65543 3.23314 8.498C3.23314 8.98845 3.29001 9.37829 3.40374 9.66753C3.51747 9.96306 3.65015 10.1831 3.80179 10.3278C3.95343 10.4724 4.10506 10.5635 4.2567 10.6013C4.40834 10.639 4.51665 10.6579 4.58164 10.6579C4.912 10.6579 5.18278 10.595 5.39399 10.4692C5.6052 10.3372 5.79745 10.1989 5.97076 10.0542C6.14406 9.90332 6.30653 9.76499 6.45816 9.63924C6.6098 9.50719 6.7831 9.44117 6.97807 9.44117C7.14054 9.44117 7.31113 9.48204 7.48985 9.56378C7.66856 9.65181 7.83374 9.787 7.98538 9.96935C8.13702 10.1517 8.26428 10.3938 8.36718 10.6956C8.47549 10.9974 8.52965 11.3621 8.52965 11.7897C8.52965 12.4059 8.42675 12.9341 8.22096 13.3742C8.01516 13.8206 7.7498 14.1948 7.42486 14.4966C7.10533 14.7921 6.73707 15.0153 6.32006 15.1662C5.90306 15.3109 5.48876 15.3832 5.07717 15.3832C4.44354 15.3832 3.87219 15.2574 3.36312 15.0059C2.85405 14.7481 2.4208 14.396 2.06336 13.9495C1.70593 13.5094 1.43515 12.9875 1.25102 12.3839C1.06688 11.7865 0.974817 11.1515 0.974817 10.4787C0.974817 8.88155 1.26185 7.4888 1.83591 6.3004C2.40996 5.112 3.17628 4.11853 4.13485 3.31997C5.09342 2.52142 6.19821 1.92407 7.44923 1.52794C8.70024 1.1381 9.99188 0.943174 11.3241 0.943174C12.5264 0.943174 13.5175 1.03435 14.2973 1.2167C15.0772 1.40533 15.7135 1.6537 16.2063 1.9618C16.6937 2.26362 17.0755 2.62517 17.3517 3.04645C17.6334 3.47402 17.8716 3.91731 18.0666 4.37633C18.8735 6.28154 19.6588 8.15531 20.4224 9.99764C21.1806 11.84 21.9117 13.6351 22.6158 15.3832C23.3252 17.1312 24.013 18.8163 24.6791 20.4386C25.3507 22.0545 26.0032 23.5856 26.6369 25.0318V21.7402V14.6192C26.6369 13.3491 26.6667 12.1041 26.7262 10.8842C26.7858 9.6581 26.9104 8.50428 27.0999 7.42278C27.2949 6.34127 27.5819 5.34779 27.961 4.44235C28.3455 3.5369 28.86 2.75407 29.5045 2.09385C30.1435 1.43363 30.9396 0.921167 31.8928 0.556473C32.8459 0.185491 33.9886 0 35.3209 0C35.9978 0 36.6206 0.0565907 37.1893 0.169772C37.7579 0.28924 38.2507 0.455866 38.6678 0.669653C39.0848 0.883439 39.4097 1.14753 39.6426 1.46192C39.8809 1.77631 40 2.12528 40 2.50884C40 2.75407 39.9702 3.01187 39.9106 3.28224C39.8511 3.55262 39.7617 3.7947 39.6426 4.00849C39.5234 4.22227 39.3772 4.40148 39.2039 4.5461C39.0252 4.69072 38.8167 4.76303 38.5784 4.76303C38.378 4.76303 38.1939 4.60269 38.026 4.28201C37.8635 3.96133 37.6604 3.60607 37.4167 3.21622C37.173 2.82009 36.8481 2.46168 36.4419 2.141C36.0412 1.82033 35.4969 1.65998 34.8091 1.65998C33.7368 1.65998 32.8459 1.87692 32.1365 2.31078C31.4324 2.75092 30.8611 3.37027 30.4224 4.16883C29.9892 4.96738 29.6696 5.93885 29.4639 7.08324C29.2581 8.22762 29.1281 9.49776 29.0739 10.8937C29.0468 11.862 29.0252 12.802 29.0089 13.7137C28.9873 14.6255 28.9737 15.5498 28.9683 16.4867C28.9629 17.4236 28.9602 18.395 28.9602 19.4011C28.9602 20.4071 28.9602 21.4855 28.9602 22.6362C28.9602 24.2647 28.9656 25.7235 28.9764 27.0125C28.9873 28.3015 29.0062 29.361 29.0333 30.191C29.629 31.3731 30.2193 32.4357 30.8042 33.3789C31.3837 34.3221 31.9551 35.1206 32.5183 35.7746C33.0815 36.4222 33.6474 36.9253 34.2161 37.2837C34.7793 37.6358 35.3534 37.8118 35.9383 37.8118C36.1224 37.8118 36.3011 37.7804 36.4744 37.7175C36.6477 37.6546 36.7994 37.5855 36.9293 37.51C37.0756 37.4346 37.2218 37.334 37.368 37.2082L38.0016 38.1137C37.8175 38.2646 37.5548 38.4469 37.2136 38.6607C36.8779 38.8745 36.469 39.082 35.987 39.2832C35.505 39.4844 34.9526 39.6542 34.3298 39.7925C33.707 39.9308 33.0273 40 32.2908 40C31.2185 40 30.1895 39.695 29.2039 39.0851C28.2183 38.4815 27.2705 37.6484 26.3607 36.5857C25.4454 35.5294 24.5708 34.2907 23.7368 32.8696C22.9082 31.4486 22.1067 29.9238 21.3322 28.2952C20.5578 26.673 19.8132 24.9784 19.0983 23.2115C18.3834 21.4446 17.6929 19.6998 17.0268 17.9769C16.3607 16.2477 15.7189 14.572 15.1015 12.9498C14.4896 11.3338 13.8911 9.84988 13.3063 8.498C13.3063 9.38458 13.3144 10.3057 13.3306 11.2615C13.3415 12.211 13.3469 13.1698 13.3469 14.1382V21.278C13.3469 22.5481 13.3198 23.79 13.2656 25.0035C13.2169 26.2171 13.0923 27.3646 12.892 28.4461C12.6916 29.5276 12.4045 30.5274 12.0309 31.4454C11.6518 32.3571 11.14 33.1431 10.4955 33.8033C9.84565 34.4636 9.04414 34.9792 8.09098 35.3502C7.13783 35.7148 5.99513 35.8972 4.66288 35.8972C3.98592 35.8972 3.36312 35.8406 2.79448 35.7274C2.22583 35.6142 1.73301 35.4476 1.316 35.2275C0.904414 35.0138 0.582183 34.7528 0.34931 34.4447C0.116437 34.1429 0 33.7908 0 33.3884C0 33.1431 0.0297861 32.8853 0.0893583 32.615C0.14893 32.3509 0.238289 32.1088 0.357433 31.8887C0.476577 31.6749 0.6228 31.4957 0.796101 31.3511C0.963986 31.2065 1.16707 31.1342 1.40536 31.1342C1.54075 31.1342 1.66531 31.2096 1.77904 31.3605C1.88735 31.5177 2.0065 31.7095 2.13647 31.9359C2.26103 32.1685 2.40455 32.42 2.56702 32.6904C2.7349 32.9545 2.93257 33.2029 3.16003 33.4355C3.39291 33.6682 3.67452 33.8599 4.00487 34.0108C4.33523 34.1618 4.73328 34.2372 5.19902 34.2372C6.26591 34.2372 7.15407 34.0203 7.86352 33.5864C8.57298 33.1463 9.14433 32.5238 9.57758 31.7189C10.0162 30.9141 10.3331 29.9426 10.528 28.8045C10.7284 27.6727 10.8557 26.3994 10.9098 24.9847C10.9477 24.0163 10.9748 23.0795 10.9911 22.174C11.0019 21.2686 11.0127 20.3474 11.0236 19.4105C11.0398 18.4736 11.0479 17.499 11.0479 16.4867C11.0479 15.4743 11.0479 14.3928 11.0479 13.2422Z" fill="#FC5C04"/>
</svg>
