<svg width="64" height="64" viewBox="0 0 64 64" fill="none" xmlns="http://www.w3.org/2000/svg">
<path d="M32 60.666C30.1333 60.666 28.24 59.9459 26.8267 58.5326L22.2667 54.026C21.12 52.906 19.6267 52.2926 18.0267 52.2926H16C10.48 52.2926 6 47.8394 6 42.3727V13.2793C6 7.81263 10.48 3.35938 16 3.35938H48C53.52 3.35938 58 7.81263 58 13.2793V42.3727C58 47.8394 53.52 52.2926 48 52.2926H45.9734C44.3733 52.2926 42.8533 52.906 41.7333 54.026L37.1733 58.5326C35.76 59.9459 33.8667 60.666 32 60.666ZM16 7.33268C12.6933 7.33268 10 9.99927 10 13.2526V42.346C10 45.626 12.6933 48.266 16 48.266H18.0267C20.6933 48.266 23.2 49.3059 25.0933 51.1725L29.6533 55.6794C30.96 56.9594 33.0667 56.9594 34.3733 55.6794L38.9333 51.1725C40.8267 49.3059 43.3333 48.266 46 48.266H48C51.3067 48.266 54 45.5994 54 42.346V13.2526C54 9.9726 51.3067 7.33268 48 7.33268H16Z" fill="#FC5C04"/>
<path d="M27.6806 38.6927H20.5339C19.3606 38.6927 18.2673 38.1325 17.5739 37.1725C16.9073 36.2659 16.7473 35.1461 17.0673 34.0794C18.0006 31.2261 20.2939 29.6793 22.3206 28.2926C24.4539 26.8526 25.6539 25.9461 25.6539 24.3994C25.6539 23.0127 24.5339 21.8926 23.1473 21.8926C21.7606 21.8926 20.6406 23.0127 20.6406 24.3994C20.6406 25.4927 19.734 26.3994 18.6406 26.3994C17.5473 26.3994 16.6406 25.4927 16.6406 24.3994C16.6406 20.8261 19.5473 17.8926 23.1473 17.8926C26.7473 17.8926 29.6539 20.7994 29.6539 24.3994C29.6539 28.1594 26.8273 30.0793 24.5606 31.626C23.1473 32.586 21.8139 33.4927 21.1473 34.6927H27.6539C28.7473 34.6927 29.6539 35.5994 29.6539 36.6927C29.6539 37.786 28.774 38.6927 27.6806 38.6927Z" fill="#FC5C04"/>
<path d="M42.7723 38.6938C41.679 38.6938 40.7723 37.7872 40.7723 36.6938V34.8537H35.5457C35.5457 34.8537 35.5457 34.8537 35.519 34.8537C34.2124 34.8537 33.0124 34.1605 32.3457 33.0405C31.679 31.8939 31.679 30.4805 32.3457 29.3605C34.159 26.2405 36.2657 22.6937 38.1857 19.6004C39.039 18.2404 40.6657 17.6272 42.1857 18.0539C43.7057 18.5072 44.7724 19.894 44.7457 21.494V30.8804H45.3324C46.4257 30.8804 47.3324 31.787 47.3324 32.8804C47.3324 33.9737 46.4257 34.8804 45.3324 34.8804H44.7723V36.7205C44.7723 37.8139 43.8923 38.6938 42.7723 38.6938ZM40.7723 23.0405C39.199 25.6005 37.5723 28.347 36.1057 30.8537H40.7723V23.0405Z" fill="#FC5C04"/>
</svg>
