<svg width="68" height="68" viewBox="0 0 68 68" fill="none" xmlns="http://www.w3.org/2000/svg">
<path d="M35.7659 65.6699C34.6247 66.11 33.3605 66.11 32.2193 65.6699C23.3215 62.2537 15.6697 56.2205 10.2743 48.3669C4.87899 40.5134 1.99388 31.209 2.00001 21.6824V6.91814C2.00132 5.61331 2.52085 4.36238 3.44446 3.44019C4.36807 2.518 5.62021 2 6.92574 2H61.0743C62.3806 2 63.6335 2.51868 64.5573 3.44193C65.481 4.36518 66 5.61738 66 6.92306V21.6824C66.0054 31.2101 63.1188 40.5154 57.7216 48.3691C52.3244 56.2227 44.6655 62.2553 35.7659 65.6699Z" stroke="#FC5C04" stroke-width="4" stroke-linecap="round" stroke-linejoin="round"/>
<path d="M14.5805 21.9383L18.6491 20.55C18.9844 20.4122 19.3606 20.4118 19.6962 20.5491C20.0317 20.6864 20.2997 20.9502 20.4421 21.2835L23.4123 25.8817L39.6967 17.7438C40.963 17.0184 42.3711 16.5749 43.8247 16.4435C45.2784 16.3121 46.7432 16.496 48.1192 16.9826C49.4951 17.4693 50.7497 18.2471 51.7972 19.263C52.8446 20.2788 53.6602 21.5088 54.1882 22.8687C54.4036 23.5705 54.3317 24.3291 53.9881 24.9779C53.6446 25.6268 53.0576 26.1129 52.3559 26.3297L42.8098 29.126L41.7508 29.4509L38.086 40.1733C38.0214 40.411 37.8983 40.6287 37.7279 40.8067C37.5576 40.9847 37.3454 41.1173 37.1107 41.1924L31.2294 43.3536C30.9804 43.4361 30.7142 43.4522 30.4571 43.4003C30.1999 43.3485 29.9608 43.2304 29.7633 43.0579C29.5658 42.8853 29.4167 42.6643 29.3309 42.4165C29.2451 42.1688 29.2254 41.903 29.2739 41.6453L31.919 32.9561L31.2294 33.1579L20.8509 36.5352C20.1702 36.7699 19.4242 36.7262 18.7756 36.4136C18.1269 36.101 17.6282 35.5448 17.3881 34.8662L13.7234 23.5974C13.6291 23.2624 13.6651 22.9042 13.8241 22.5947C13.983 22.2852 14.2532 22.0472 14.5805 21.9284V21.9383Z" stroke="#FC5C04" stroke-width="4" stroke-linecap="round" stroke-linejoin="round"/>
</svg>
