<svg width="40" height="40" viewBox="0 0 40 40" fill="none" xmlns="http://www.w3.org/2000/svg">
<g id="Frame 91">
<path id="Vector" d="M40.0006 14.7539H17.9766V35.9211H40.0006V14.7539Z" fill="white"/>
<path id="Vector_2" d="M20.6175 0.569846L20.5994 1.14591L20.1773 1.18735C19.9476 1.20496 19.3867 1.25211 18.9407 1.29096C18.4946 1.32981 17.8545 1.41633 17.5244 1.47538C17.1942 1.53444 16.8428 1.60437 16.7402 1.62199C16.5653 1.65152 16.3543 1.70436 15.8051 1.85148C15.6546 1.89241 15.3707 1.96908 15.1719 2.02761C14.6653 2.16282 14.098 2.35709 14.0257 2.42184C13.971 2.45335 13.9085 2.46949 13.8449 2.46847C13.7595 2.47593 13.6779 2.50662 13.6094 2.55705C13.5511 2.60115 13.483 2.63131 13.4106 2.64512C13.3441 2.64512 12.9156 2.83317 12.005 3.25071C11.275 3.59158 9.53763 4.65512 8.89807 5.15503C8.69924 5.31355 8.4398 5.50782 8.32497 5.58397C7.78802 5.95437 6.04479 7.67686 5.30315 8.56426C4.7359 9.24601 3.27018 11.4207 3.25795 11.5917C3.25795 11.615 3.09846 11.944 2.90814 12.3263C2.43764 13.2588 2.07559 14.1545 2.1479 14.2249C2.1782 14.2544 2.40149 14.1601 2.70292 13.984C2.98044 13.825 3.2218 13.696 3.24572 13.696C3.26965 13.696 3.48124 13.6193 3.73483 13.5255C4.7056 13.1665 5.55036 13.0199 6.60566 13.0256C7.03969 13.0267 7.473 13.0601 7.90179 13.1256C8.91509 13.308 10.0857 13.7602 10.8577 14.2653C11.3043 14.5533 11.4249 14.571 11.7083 14.3829C11.9316 14.2363 12.2633 14.042 12.6371 13.8421C12.9087 13.6955 13.729 13.3955 14.2357 13.2603C16.2203 12.7314 18.4356 13.0489 20.2963 14.1244C20.4067 14.1952 20.5132 14.2716 20.6153 14.3534C20.8567 14.5533 21.1161 14.5653 21.3692 14.3829C21.9242 14.0011 22.8232 13.5893 23.7642 13.295C24.2347 13.1479 25.1034 13.0303 25.7844 13.0246C27.3347 13.0127 28.7281 13.3831 30.0253 14.1591L30.6468 14.5352L30.8998 14.4238C31.061 14.3533 31.2164 14.2707 31.3645 14.1767C31.9859 13.7654 33.2587 13.2961 34.1635 13.1303C35.0078 12.9837 36.0455 12.9598 36.6548 13.0717C38.0062 13.3308 38.6091 13.5478 39.8882 14.2632C39.9121 14.2752 39.9483 14.2518 39.9663 14.2047C39.9966 14.1166 39.7372 13.4463 39.3454 12.635C39.2247 12.3941 39.0615 12.0476 38.977 11.8709C38.9009 11.71 38.8165 11.553 38.7239 11.4005C38.6707 11.3187 38.5309 11.0949 38.4219 10.9011C38.247 10.5903 37.9094 10.0842 37.3969 9.35531C36.5341 8.12652 34.9232 6.4807 33.5117 5.39903C33.1199 5.09338 32.0402 4.34119 31.7988 4.20028C31.7456 4.16505 31.533 4.04487 31.3342 3.92365C30.8998 3.67136 29.6212 3.03054 29.0721 2.80105C28.8551 2.70729 28.6016 2.59383 28.5112 2.54825C28.4246 2.50441 28.3306 2.47649 28.2337 2.46588C28.1771 2.4651 28.1218 2.44895 28.0742 2.41925C28.0019 2.3545 27.6037 2.21929 27.0183 2.05663C26.7711 1.98617 26.4575 1.89189 26.3272 1.84526C26.2086 1.80282 26.085 1.77515 25.9593 1.7629C25.8968 1.76447 25.8355 1.7463 25.7844 1.71109C25.7483 1.68156 25.6037 1.64634 25.4527 1.62872C25.3017 1.61111 24.9141 1.5448 24.5808 1.48108C24.038 1.37747 23.6036 1.32567 21.9263 1.18735L21.4436 1.14591L21.4255 0.569846L21.4075 0H20.6355L20.6175 0.569846ZM23.3442 6.2424L23.4505 6.37761L23.6074 6.2367L23.7701 6.08958L23.9295 6.2481C24.0864 6.40351 24.0864 6.40714 23.9779 6.52473C23.8753 6.62834 23.8572 6.63611 23.7307 6.55374C23.5494 6.44237 23.4713 6.44237 23.3325 6.56566C23.2262 6.65994 23.2118 6.65373 23.0608 6.50712C22.9099 6.36051 22.904 6.34808 23.013 6.23049C23.1512 6.07766 23.2129 6.08388 23.3442 6.2424ZM13.5717 6.31907C13.6865 6.44237 13.7046 6.49521 13.6562 6.57136C13.5536 6.72418 13.3968 6.72418 13.2341 6.57757L13.089 6.44236L13.2219 6.30716C13.3845 6.13672 13.3968 6.13672 13.5717 6.31907ZM15.1666 6.53043C15.1847 6.63041 15.2027 7.11841 15.2027 7.6121C15.2027 8.60519 15.2208 8.66425 15.5749 8.62902C15.7439 8.6171 15.7801 8.58188 15.804 8.44097C15.8402 8.2467 15.9853 8.15864 15.9853 8.33477C15.9853 8.49381 16.19 8.65233 16.3575 8.62902C16.4542 8.6171 16.5143 8.55235 16.5568 8.41714C16.6291 8.17625 16.6833 8.17625 16.7918 8.43475C16.9247 8.74558 17.2564 8.71139 17.3165 8.38295C17.3527 8.2006 17.4553 8.21873 17.552 8.42439C17.6302 8.58861 17.6786 8.61244 17.9019 8.63161C18.2336 8.65492 18.3362 8.57255 18.3362 8.29074C18.3362 7.7499 18.9396 7.4971 19.3011 7.87889C19.6876 8.28452 19.7796 9.01341 19.4824 9.31905C19.2698 9.54284 19.0481 9.51332 18.728 9.22528L18.4569 8.9844L18.3001 9.16623C18.1251 9.37344 17.8051 9.41903 17.6727 9.26051C17.5701 9.14292 17.4914 9.14861 17.3346 9.29574L17.1969 9.41903L16.9561 9.28382C16.7264 9.16053 16.7025 9.16053 16.5999 9.2486C16.4553 9.37811 16.3404 9.37189 16.1172 9.2486C15.9422 9.14861 15.9305 9.14861 15.8157 9.2486C15.7434 9.31335 15.6031 9.34858 15.3994 9.34858C15.1336 9.34858 15.0677 9.32527 14.9412 9.17244C14.7285 8.93104 14.6695 8.57877 14.6514 7.53232L14.6392 6.62109L14.8444 6.48588C15.1039 6.31078 15.1161 6.31078 15.1645 6.53043H15.1666ZM27.4904 6.59519L27.6292 6.71848L27.7802 6.58327L27.9397 6.44236L28.1023 6.60089L28.2618 6.75992L28.1412 6.877C28.0205 6.9946 28.0146 7.00081 27.8275 6.89462C27.6526 6.79515 27.6404 6.79515 27.5138 6.90653C27.3873 7.01791 27.3873 7.01843 27.2305 6.85939C27.0736 6.70035 27.0736 6.70087 27.1821 6.58327C27.3134 6.43615 27.3192 6.43615 27.4883 6.59519H27.4904ZM13.8311 7.22409C13.9511 7.35604 14.047 7.50709 14.1145 7.67064C14.2171 7.98147 14.157 8.52334 13.9821 8.82898C13.7827 9.18125 13.5233 9.30506 12.9385 9.34702L12.4558 9.37655L12.4196 9.64075C12.3688 9.98584 12.2221 10.3108 11.9954 10.5805C11.8082 10.8038 11.7827 10.8157 11.4637 10.8157C10.9209 10.8157 10.4324 10.639 10.7157 10.5453C11.4154 10.3158 12.2421 9.7397 12.2421 9.4869C12.2421 9.38329 12.0129 8.9932 11.9523 8.9932C11.8844 8.96077 11.8214 8.91928 11.7652 8.86991L11.6147 8.75231L11.7593 8.48759C11.8439 8.34669 11.9284 8.22857 11.9582 8.22857C11.9879 8.22857 12.0969 8.32286 12.2059 8.43579C12.4047 8.64301 12.4106 8.64301 12.9295 8.64301C13.2793 8.64301 13.5143 8.614 13.6291 8.55494C13.8949 8.41973 13.8465 8.36689 13.4967 8.39072C13.0624 8.41973 12.7849 8.26121 12.7849 7.98509C12.7849 7.45566 13.0805 6.99719 13.418 6.99719C13.5717 6.9946 13.6684 7.04796 13.8311 7.22409ZM23.6876 7.07127C23.8509 7.15933 24.0199 7.37691 24.1342 7.64111C24.2491 7.91723 24.2491 9.0046 24.1342 9.28693C23.8812 9.90392 23.5127 10.1215 22.6743 10.1567C21.9508 10.1863 21.6307 10.0744 21.3777 9.70396C21.2326 9.48638 21.2182 9.42784 21.2448 9.03983C21.2751 8.6285 21.4255 8.19335 21.5281 8.2524C21.5526 8.27002 21.5643 8.42284 21.5462 8.59327C21.5281 8.85229 21.5462 8.93984 21.6669 9.11132C21.8663 9.39935 22.1496 9.48172 22.8673 9.44649C23.5127 9.42318 23.8567 9.28175 23.9232 9.02325C23.9763 8.81603 23.9109 8.75853 23.6456 8.75853C23.3501 8.75853 22.9396 8.60001 22.8615 8.4591C22.7833 8.31819 22.7892 8.15916 22.8918 7.83745C23.0183 7.46705 23.1512 7.22616 23.3081 7.10287C23.4649 6.97957 23.5127 6.97698 23.6876 7.07127ZM30.3294 7.70587C30.7456 7.83538 31.2161 7.95867 31.3788 7.97629C31.5415 7.9939 31.693 8.04104 31.7047 8.0799C31.7164 8.11875 31.6744 8.25033 31.6085 8.36793C31.5022 8.54406 31.4394 8.57929 31.2767 8.57929C31.1497 8.57929 30.7818 8.72019 30.3054 8.94192L29.533 9.31542L28.8211 9.33925C28.1832 9.35687 28.0917 9.34495 27.8924 9.23565C27.6797 9.11235 27.6691 9.11235 27.5548 9.21233C27.4702 9.289 27.307 9.32423 26.9753 9.33563C26.4569 9.36516 26.3602 9.4123 26.3602 9.63557C26.3602 9.83554 26.1066 10.3608 25.8658 10.6525L25.6728 10.8877L25.2204 10.8525C24.7977 10.811 24.6106 10.7488 24.6106 10.6406C24.6106 10.6173 24.8402 10.494 25.1177 10.3588C25.6494 10.0997 26.1188 9.71224 26.1188 9.52989C26.1188 9.43561 26.0587 9.4123 25.727 9.37448C25.4373 9.34495 25.2863 9.29781 25.1539 9.18643C24.9487 9.02169 24.9306 8.86887 25.0571 8.45755C25.2262 7.92241 25.4495 7.64059 25.7089 7.64059C25.8955 7.64059 26.2337 8.00322 26.3469 8.31405L26.4532 8.6083L26.7966 8.62591C27.1645 8.64352 27.1768 8.63731 27.0742 8.46687C26.9599 8.29644 27.0683 8.04363 27.3581 7.77373C27.7137 7.43856 27.9492 7.42664 28.2204 7.72659C28.433 7.96178 28.4676 8.2379 28.3108 8.45185C28.2268 8.56944 28.2268 8.58706 28.3171 8.61658C28.5101 8.69326 29.8132 8.59897 30.0604 8.49329C30.1933 8.44149 30.273 8.3757 30.2411 8.34617C30.1688 8.27571 29.3905 7.99338 29.2698 7.99338C29.2167 7.99338 29.1071 8.05244 29.029 8.12289C28.9264 8.21096 28.8695 8.23479 28.8238 8.18765C28.6792 8.04622 29.1794 7.46239 29.4453 7.46239C29.5213 7.46498 29.9115 7.57066 30.3294 7.70587Z" fill="white"/>
<path id="Vector_3" d="M18.7854 8.07699C18.6764 8.35932 19.0443 9.00014 19.2638 8.91777C19.511 8.8297 19.2458 8.04746 18.956 8.00653C18.8757 7.99462 18.8018 8.02415 18.7854 8.07699ZM19.0868 8.38263C19.14 8.51214 19.0687 8.57068 19.0023 8.465C18.9358 8.35932 18.93 8.28886 18.9964 8.28886C19.0262 8.28886 19.0677 8.33186 19.0868 8.38367V8.38263Z" fill="white"/>
<path id="Vector_4" d="M13.0901 7.61273C12.9758 7.74794 13.0784 7.81995 13.3979 7.81995C13.7174 7.81995 13.7658 7.76089 13.5606 7.61999C13.3921 7.50291 13.1869 7.50291 13.0901 7.61273Z" fill="white"/>
<path id="Vector_5" d="M23.1884 7.76406C23.0821 7.88165 23.0821 7.88735 23.1943 7.97127C23.3208 8.05934 23.7434 8.08317 23.7913 8.0008C23.8338 7.94175 23.5983 7.72417 23.4298 7.67754C23.3452 7.65216 23.2671 7.67599 23.1884 7.76406Z" fill="white"/>
<path id="Vector_6" d="M27.3992 8.11838C27.2301 8.18262 27.2482 8.27379 27.4592 8.42402C27.5799 8.51209 27.6719 8.52763 27.8394 8.50018C28.1169 8.44837 28.177 8.30643 27.984 8.165C27.8271 8.04741 27.6161 8.02979 27.3992 8.11838Z" fill="white"/>
<path id="Vector_7" d="M25.377 8.33168C25.2983 8.40213 25.3344 8.57256 25.4301 8.60779C25.5567 8.65493 25.9086 8.65493 25.9549 8.60209C26.033 8.53164 25.7374 8.29127 25.5747 8.29127C25.4854 8.28868 25.395 8.30629 25.377 8.33168Z" fill="white"/>
<path id="Vector_8" d="M17.9766 17.3099V19.867L20.6188 19.8551L23.2546 19.8374L23.2732 17.2923L23.2849 14.7539H17.9766V17.3099ZM22.5008 17.2804V19.1055L20.6188 19.0935L18.7304 19.0759L18.7123 17.2654L18.7006 15.461H22.5008V17.2804Z" fill="black"/>
<path id="Vector_9" d="M19.4844 17.281V18.3979L20.6184 18.3859L21.7465 18.3683L21.7646 17.2633L21.7768 16.1641H19.4844V17.281Z" fill="black"/>
<path id="Vector_10" d="M25.576 15.4587V16.17L25.9481 16.1523L26.3203 16.1347L26.308 15.4613L26.3022 14.7852L25.9343 14.7676L25.5723 14.75L25.576 15.4587Z" fill="black"/>
<path id="Vector_11" d="M27.084 15.1067V15.4652L27.4636 15.4476L27.8357 15.4299L27.8538 15.0891L27.8719 14.7539H27.084V15.1067Z" fill="black"/>
<path id="Vector_12" d="M30.1436 14.7938C30.1197 14.8119 30.1016 14.9704 30.1016 15.1466V15.4574H29.3839L29.3658 15.7921L29.3477 16.1335L28.9756 16.1511L28.5955 16.1687V16.5095C28.5955 16.8856 28.5593 16.924 28.2153 16.924C27.932 16.924 27.8836 16.8654 27.8597 16.5127L27.8416 16.1894L27.4694 16.1718L27.0899 16.1542V17.6239L27.4694 17.6415L27.8416 17.6591L27.8474 17.9937L27.8538 18.3289L27.0936 18.3465L26.3333 18.3641L26.3153 18.7268L26.2972 19.0894L26.6773 19.107L27.0574 19.1246L27.0755 19.4598L27.0936 19.8007H26.3674L26.3509 19.4681L26.3328 19.1329L25.9607 19.1153L25.5805 19.0977V17.6389L25.9607 17.6213L26.3328 17.6037L26.3509 17.3156C26.3631 17.1571 26.345 17.0048 26.3147 16.9748C26.2547 16.9162 24.1611 16.8748 24.0649 16.9276C24.0287 16.9514 24.0117 17.11 24.0229 17.2861L24.0409 17.6037L24.4024 17.6332L24.7645 17.6627L24.7826 17.9974L24.8006 18.3325L24.4205 18.3502L24.0409 18.3678V19.8374L24.4205 19.8551L24.8006 19.8727L24.7826 20.2078L24.7645 20.543L23.6364 20.5606L22.5024 20.572V21.2776H21.7788V20.572H17.9766V21.2776H18.4168C18.6688 21.2779 18.9206 21.2916 19.1711 21.3185L19.4901 21.3538L19.4721 21.6832L19.454 22.0122L19.0818 22.0298L18.7017 22.0474V22.7473H17.9766V23.5052L18.3264 23.5228L18.6703 23.5404L18.6884 23.8756L18.7065 24.2165H20.2025L20.2206 24.5791L20.2387 24.9495L20.6188 24.9671L20.9989 24.9847L20.9814 25.322L20.9633 25.6571L20.227 25.6747L19.4912 25.6924L19.4731 26.055L19.455 26.4176H18.7304L18.7123 26.0472L18.6943 25.6846H17.9766V30.0931H18.7006L18.7123 28.6426L18.7304 27.1848L19.4667 27.1672L20.2025 27.1496L20.2206 27.52L20.2387 27.8904L21.0106 27.908L21.7772 27.9256V29.3306H20.9925V28.625H19.4848V30.0947H24.0037L24.0223 30.8116L24.0404 31.5369L24.4019 31.5664L24.764 31.5954L24.7943 31.9482L24.8246 32.301L25.1861 32.2953L25.5481 32.2834L25.5784 31.9425L25.6087 31.5954L25.9585 31.5778L26.3025 31.5602V33.0408L25.5662 33.0232L24.8219 33.0055L24.8038 32.6351L24.7858 32.2647L24.4136 32.2824L24.0415 32.3V35.8853L24.4136 35.9035L24.7858 35.9211L24.8038 35.5797L24.8219 35.2388L25.194 35.2212L25.5662 35.2036L25.5843 34.4866L25.6023 33.7697L26.7363 33.752L27.8645 33.7401V33.0335H28.588V34.5032H29.3722V35.2088H27.8698V34.5032H26.3014V35.2088H27.8698V35.9138L29.0037 35.9024L30.1319 35.8843L30.15 35.1912L30.168 34.5032H32.394V35.2088H33.8959L33.9139 35.5434L33.932 35.8843L34.3121 35.9024L34.6843 35.92V35.2088H35.469V35.9138L36.6029 35.9024L37.7311 35.8843L37.7492 34.8088L37.7608 33.7334L38.1107 33.751L38.4546 33.7686L38.4727 34.4856L38.4908 35.2108H39.2633L39.2813 34.4856L39.2994 33.7686L39.6492 33.751L39.9932 33.7334V31.5644H38.4865V31.9166C38.4865 32.2404 38.4988 32.2694 38.6311 32.3046C38.6982 32.323 38.7692 32.323 38.8363 32.3046C38.9177 32.2863 39.0022 32.2863 39.0836 32.3046C39.2765 32.3461 39.2765 32.3461 39.2585 32.675L39.2404 33.0045L38.5046 33.0221L37.7603 33.0397V33.7391H36.9783V32.3285H37.2739C37.7385 32.3285 37.7624 32.3046 37.7624 31.9109V31.5701L37.3903 31.5524L37.0102 31.5348L36.9921 31.1997L36.974 30.8645L37.3541 30.8469L37.7343 30.8293L37.7523 29.7243L37.764 28.625H38.4881V27.9256L38.8682 27.908L39.2404 27.8904L39.2585 27.5278L39.2765 27.1651L38.897 27.1475L38.5168 27.1299L38.4988 26.7947L38.4807 26.4596L37.7444 26.442L37.0086 26.4243V25.7157L37.3887 25.6981L37.7608 25.6804V24.9806H39.2633L39.2813 24.2553L39.2994 23.5378L39.6311 23.5088L39.9629 23.4793V22.7763L39.2186 22.7587L38.4743 22.7411L38.4924 22.4059L38.5105 22.0712L38.8906 22.0536L39.2627 22.036V20.572H38.4865V21.2776H37.7624V20.572H36.9783V21.2776H36.1861L36.2042 21.6402L36.2223 22.0106L36.6024 22.0282L36.9746 22.0459V23.5155L37.3547 23.4979L37.7268 23.4803L37.7566 23.1275L37.7869 22.7747L38.1367 22.7571L38.4807 22.7395V24.2149H36.1941V24.979H35.4706V26.4487H36.1941V27.1558H35.4706V27.9199H36.1941V28.625H36.9783V29.3306H36.2606L36.2425 28.9897L36.2244 28.6545L35.4706 28.625L34.7162 28.596L34.6976 28.2748C34.6853 28.0987 34.6444 27.9339 34.6072 27.9122C34.57 27.8904 34.4084 27.865 34.2515 27.865H33.9618L33.9496 26.7896L33.9315 25.7198L33.5593 25.7022L33.1872 25.6846L33.1691 26.4073L33.151 27.1325L32.7709 27.1501L32.3908 27.1677L32.4089 27.5304L32.4269 27.893L33.1712 27.9106L33.907 27.9282V29.3331H30.8857V28.625H31.6699V27.9256L31.4041 27.8904C30.9458 27.82 30.9155 27.8433 30.8974 28.2608L30.8794 28.6234H30.1616V27.9199H30.8857V27.1558H31.6699V26.4502H30.8857V27.1496L30.5136 27.1672L30.1335 27.1848L30.1154 27.5143L30.0973 27.8433L29.3674 27.8785C28.9628 27.9023 28.4636 27.9199 28.251 27.9199H27.8708V27.1558H29.3786V26.4559L29.7587 26.4383L30.1308 26.4207L30.1489 26.0503L30.167 25.6877H31.6688V24.9883L31.2967 24.9707L30.9166 24.9531V24.246L31.2967 24.2284L31.6688 24.2108V23.5114H27.8698V22.7473H28.5933V22.0417H29.3775V22.7473H30.1616V22.0417H29.3775V20.572H27.8698V21.2776H27.0856V19.8727L27.4652 19.8551L27.8373 19.8374L27.8554 19.1122L27.8735 18.3952H29.3754V19.1055H28.5875L28.6056 19.4681L28.6236 19.8385H29.3477L29.3658 19.4681L29.3839 19.1055H30.1016V20.5746H30.8857V20.9155C30.8857 21.1041 30.898 21.2745 30.9097 21.2859C30.9214 21.2973 31.1032 21.2978 31.302 21.2921L31.6699 21.2683V20.572H30.8799L30.898 19.8494L30.916 19.1319L31.2962 19.1143L31.6683 19.0966V19.867H32.3924V19.1055H31.6699V18.3973H33.1718L33.1904 18.0269L33.2085 17.6643L33.588 17.6467L33.9602 17.629V16.9297H33.755C33.6237 16.927 33.4927 16.9152 33.3632 16.8945C33.1819 16.8592 33.176 16.8535 33.176 16.5127V16.1656H32.394V16.5127C32.394 16.7717 32.3695 16.8654 32.2972 16.8945C32.1707 16.9416 31.2052 16.9416 30.6263 16.8945L30.1616 16.8535V15.4584H30.8857V16.1635H31.6699V15.4584H33.1782V14.7539H31.6821C30.8554 14.7539 30.1617 14.7705 30.1436 14.7938ZM30.1016 17.986V18.3388H29.3775V18.0279C29.3775 17.8518 29.3956 17.6928 29.42 17.6751C29.4445 17.6575 29.6008 17.6342 29.7821 17.6342H30.101L30.1016 17.986ZM25.5774 19.4551V19.8079H24.7932V19.4971C24.7932 19.3204 24.8113 19.1619 24.8352 19.1443C24.8591 19.1267 25.0346 19.1034 25.2275 19.1034H25.5774V19.4551ZM26.3014 20.9248V21.2776H25.5774V22.7473H26.2834L26.3254 22.0593C26.3493 21.677 26.3737 21.3657 26.3785 21.36C26.4924 21.342 26.6076 21.3329 26.723 21.333L27.0548 21.3154L27.0728 21.6781L27.0909 22.0407H27.8692V21.2776H28.1351C28.5636 21.2776 28.5933 21.3009 28.5933 21.6951V22.0417H27.8698V22.7473H27.0856V24.2108L27.4652 24.2284L27.8373 24.246L27.8554 24.6086L27.8735 24.979H28.5854L28.6034 24.6086L28.6215 24.246L29.3658 24.2284L30.1016 24.2108V24.9806H29.3775V25.6846H28.5997L28.5816 26.0472L28.5636 26.4176H27.1154V25.7157L27.4955 25.6981L27.8676 25.6804V24.9806H26.3073L26.2892 25.6981L26.2711 26.4233L25.9272 26.4409L25.5774 26.4585V27.1522L26.3216 27.1698L27.0574 27.1874L27.0755 27.5501L27.0936 27.9204H27.8719V28.6255H28.5955V29.3311H27.8698V28.625H26.3615V28.3079C26.3615 27.9375 26.2834 27.8495 25.9575 27.8609C25.5715 27.8785 25.5774 27.8904 25.5774 27.5081V27.1558H24.799L24.781 27.8728L24.7629 28.598L24.4189 28.6157L24.0691 28.6333V27.9199H21.7788V27.1615L21.4067 27.1439L21.0266 27.1263L21.0085 26.7911L20.9904 26.4559L21.3705 26.4383L21.7506 26.4207L21.7687 25.6955L21.7868 24.978H20.9925V24.2165H20.269V23.5052L20.6188 23.5228L20.9628 23.5404L20.9808 23.8756L20.9989 24.2165H21.7788V23.5114H22.4965L22.5146 23.141L22.5327 22.7784H23.2562V23.4839L22.8841 23.5016L22.504 23.5192V24.2185L23.6379 24.2304L24.7661 24.2481L24.7842 24.6107L24.8022 24.9811H25.5805V24.2227L25.9607 24.2051L26.3328 24.1874V23.5404L25.579 23.5114L24.8251 23.4819L24.807 23.1115L24.7889 22.7488H24.0691V22.0474L23.303 22.0298L22.5311 22.0122L22.513 21.6418L22.4949 21.2719L24.0213 21.2833L25.5471 21.2952L25.5651 21.0072C25.5896 20.5782 25.5954 20.572 25.9692 20.572H26.3014V20.9248ZM21.7772 22.0127V22.7473H20.269V21.3424L20.588 21.3185C20.757 21.3071 21.101 21.2952 21.3423 21.2895L21.7767 21.2776L21.7772 22.0127ZM37.7624 21.5662C37.7624 22.0189 37.7385 22.0422 37.3371 22.0422H36.9809V21.2776H37.7651L37.7624 21.5662ZM37.7279 27.2496C37.746 27.3014 37.764 27.6319 37.764 27.9847V28.625H36.9783V27.9313C36.9783 27.5495 36.9964 27.2144 37.0208 27.1967C37.0453 27.1791 37.2016 27.1558 37.3765 27.1558C37.6056 27.1558 37.6965 27.1791 37.7279 27.2496ZM23.2732 28.9897L23.2913 29.3306H22.5008V29.0197C22.5008 28.8431 22.5189 28.6846 22.5433 28.6607C22.5678 28.6369 22.7363 28.6255 22.9229 28.6374L23.2546 28.655L23.2732 28.9897ZM30.1138 28.9897L30.1319 29.3601L30.512 29.3777L30.8841 29.3953V30.8002H29.3775V31.5644H30.0957L30.1138 31.927L30.1319 32.2974L30.512 32.315L30.8841 32.3326V33.032H31.6683V32.2694H30.8799L30.898 31.9285L30.916 31.5934L31.2962 31.5758L31.6683 31.5581V30.8588H32.3924V31.5644H31.6699V32.2694H31.9293C32.0681 32.2694 32.4078 32.287 32.6832 32.3109L33.1782 32.3461L33.1659 33.4101L33.1478 34.4737L32.7757 34.4913L32.3956 34.5089V33.0335H31.6757L31.6577 33.3687L31.6396 33.7096L31.2675 33.7272L30.8873 33.7448V33.0335H30.1016V33.7391H29.3839L29.3658 33.0138L29.3477 32.2969L28.6114 32.2793L27.8698 32.2637V33.0408L27.4976 33.0232L27.1175 33.0055L27.0994 32.6704L27.0814 32.3409L27.4795 32.3L27.8719 32.259V31.5644H26.3615V30.8588L27.4652 30.8469L28.5636 30.8293L28.5933 30.477L28.6236 30.1242L29.0037 30.1066L29.3759 30.089V29.3953C29.3759 29.013 29.394 28.684 29.4184 28.6664C29.4429 28.6488 29.5992 28.625 29.7741 28.625H30.0931L30.1138 28.9897ZM25.5774 29.7419V30.0947H26.3014V30.8002H24.7932V29.3891H25.5774V29.7419ZM27.8698 29.6657C27.8698 30.0651 27.8272 30.1066 27.4413 30.0802L27.1154 30.0626L27.0952 29.7253L27.0771 29.3901H27.8676L27.8698 29.6657ZM33.1659 30.4589L33.184 30.8002H32.394V30.4894C32.394 30.3133 32.4121 30.1542 32.436 30.1309C32.4599 30.1076 32.629 30.0957 32.8161 30.1076L33.1478 30.1252L33.1659 30.4589ZM36.1962 31.1841V32.272H33.9634V30.0962H36.1962V31.1841ZM36.1962 33.3884V33.7412H35.4706V34.5053H36.1941V35.2108H35.4706V34.5032H34.6859V35.2088H33.9623V34.5032H34.6859V33.7391H33.9623V33.0335H36.1952L36.1962 33.3884Z" fill="black"/>
<path id="Vector_13" d="M21.7773 24.5985V24.9803H22.5009V25.6864H23.2851V24.987L22.9129 24.9694L22.5328 24.9518L22.5147 24.5814L22.4966 24.2188H21.7773V24.5985Z" fill="black"/>
<path id="Vector_14" d="M24.0318 25.7695C24.0137 25.8104 24.0079 25.9767 24.0201 26.1321L24.0382 26.4201L24.4178 26.4377L24.7899 26.4554V25.6855H24.4279C24.177 25.6855 24.0563 25.7104 24.0318 25.7695Z" fill="black"/>
<path id="Vector_15" d="M22.5 26.804V27.1567H23.2842V26.4512H22.5V26.804Z" fill="black"/>
<path id="Vector_16" d="M34.7281 30.8358C34.7042 30.8591 34.6855 31.0353 34.6855 31.2238V31.5647H35.4761L35.458 31.1943L35.4399 30.8317L35.1082 30.8141C34.9211 30.8006 34.7504 30.8136 34.7281 30.8358Z" fill="black"/>
<path id="Vector_17" d="M34.6972 17.2923L34.7153 19.8374H39.9636V14.7824L37.3214 14.7648L34.6855 14.7539L34.6972 17.2923ZM39.2576 17.2628L39.2395 19.0733L37.3575 19.091L35.4697 19.1029V15.4584H39.2693L39.2576 17.2628Z" fill="black"/>
<path id="Vector_18" d="M36.2176 16.2407C36.2054 16.2817 36.1996 16.7754 36.2054 17.34L36.2235 18.3683L37.3575 18.3859L38.4856 18.3979V16.1641H37.3692C36.5132 16.1641 36.2416 16.1817 36.2176 16.2407Z" fill="black"/>
<path id="Vector_19" d="M11.3105 15.548C10.436 15.9831 10.0256 16.8648 10.2792 17.7818C10.3855 18.1931 10.5083 18.393 10.8108 18.6692C11.3297 19.1572 12.0336 19.3276 12.6928 19.1354C13.0649 19.024 13.302 18.8826 13.6157 18.5656C13.9841 18.1952 14.1165 17.8481 14.1165 17.2663C14.1165 16.6845 13.99 16.3789 13.5849 15.9712C13.1442 15.5303 12.9214 15.4423 12.2154 15.4184C11.6662 15.4008 11.5822 15.4127 11.3105 15.548Z" fill="white"/>
<path id="Vector_20" d="M24.0318 15.5414C24.0137 15.5823 24.0079 15.7351 24.0201 15.876L24.0382 16.135L24.4178 16.1526L24.7899 16.1703V15.459H24.4279C24.177 15.459 24.0563 15.4823 24.0318 15.5414Z" fill="black"/>
<path id="Vector_21" d="M33.1777 19.4857V19.8737L33.5579 19.8561L33.93 19.8385L33.9481 19.4681L33.9662 19.1055H33.1777V19.4857Z" fill="black"/>
<path id="Vector_22" d="M11.2617 19.4687C10.9959 19.5392 9.8864 20.4914 9.31967 21.1384C9.12616 21.3617 8.83695 21.673 8.68596 21.8377C8.38452 22.1486 7.49191 23.2779 7.29254 23.5892C7.21925 23.7233 7.17988 23.8725 7.17771 24.0244C7.17683 24.1639 7.15461 24.3026 7.11179 24.4357C7.06517 24.5559 7.02733 24.6792 6.99855 24.8046C6.97463 24.9165 6.89222 25.2221 6.81779 25.4806C6.74337 25.7391 6.66096 26.0567 6.63066 26.1857C6.60036 26.3147 6.52805 26.5913 6.46798 26.8032C6.3473 27.2264 6.35899 27.2176 5.84065 27.1026C5.67744 27.0674 5.42438 27.0145 5.27339 26.9793C4.84489 26.8912 4.82097 26.8503 4.95441 26.4799C5.1474 25.9391 5.08094 25.7863 4.63543 25.78C4.38237 25.7743 4.38237 25.7743 4.29784 26.0681C4.13835 26.6089 4.11655 26.6441 3.9358 26.6089C3.84542 26.5913 3.56791 26.5208 3.32069 26.4504C2.61468 26.2566 2.25264 26.2432 1.96928 26.4032C1.68592 26.5633 1.54982 26.7918 1.36321 27.5087C1.28506 27.8144 1.158 28.2791 1.0857 28.5376C1.0134 28.7961 0.88474 29.2432 0.807653 29.5369C0.730566 29.8306 0.602973 30.2658 0.536519 30.5067C0.470064 30.7475 0.391382 31.0418 0.367459 31.1532C0.31908 31.3604 0.277081 31.5122 0.0957929 32.0644C-0.0971909 32.6462 0.00541484 33.1404 0.367459 33.3989C0.482292 33.4813 0.747578 33.5926 0.964486 33.6517C1.18139 33.7107 1.47751 33.7869 1.6285 33.8278C1.77948 33.8687 2.23775 33.9926 2.65349 34.0925C3.9023 34.4034 3.8603 34.3806 3.98258 34.6976C4.12134 35.0504 4.18779 35.1328 4.47115 35.2737C4.77844 35.4265 5.03788 35.4151 5.33985 35.2384C5.45167 35.1728 5.5488 35.086 5.62544 34.983C5.70208 34.8801 5.75666 34.7631 5.78593 34.6392C5.8152 34.5152 5.81856 34.3868 5.79581 34.2616C5.77306 34.1363 5.72467 34.0168 5.65351 33.9102C5.54718 33.7574 5.52645 33.6693 5.55675 33.5341C5.76941 32.7052 5.9911 31.8354 6.06978 31.5655C6.12295 31.3889 6.23831 30.9656 6.3356 30.6248C6.43289 30.2839 6.53443 29.9254 6.56474 29.8311C6.62534 29.6493 6.7641 29.1318 6.91455 28.536C6.96293 28.3423 7.04746 28.048 7.09584 27.8895C7.14422 27.731 7.2346 27.3839 7.30052 27.1254C7.47543 26.4613 7.65671 25.8261 7.77102 25.462L7.86777 25.1563H8.14529C8.51318 25.1563 8.79069 25.0092 9.08044 24.6507C9.21281 24.4803 9.49033 24.1327 9.70139 23.869C9.91245 23.6053 10.0996 23.3929 10.124 23.3929C10.1485 23.3929 10.1719 24.0337 10.1719 24.8211C10.1719 25.6086 10.2086 26.467 10.2383 26.7431L10.2947 27.2445L10.082 27.6263C9.2495 29.0727 8.33296 31.3946 7.59079 33.9045C7.47011 34.3215 7.796 34.9271 8.22397 35.0856C8.44726 35.168 8.96826 35.168 9.12775 35.0856C9.4999 34.8976 9.64663 34.6743 9.89437 33.8941C10.0326 33.4709 10.2197 32.9124 10.3165 32.6539C10.4132 32.3954 10.5291 32.0426 10.5823 31.8722C10.6539 31.6433 10.7386 31.4185 10.8359 31.1988C10.9199 30.9988 11.0167 30.7812 11.0406 30.7165C11.0645 30.6517 11.258 30.2347 11.4691 29.7881C11.8412 28.9769 11.9757 28.7769 12.03 28.9297C12.2655 29.6115 12.7115 30.934 12.8205 31.2749C12.9832 31.7805 13.4356 33.0679 13.7073 33.8024C14.0028 34.5961 14.2804 34.8608 14.8237 34.8608C15.1677 34.8608 15.644 34.6199 15.8067 34.3609C16.03 34.0024 16.0241 33.7392 15.7769 33.0383C15.6562 32.6975 15.5356 32.339 15.5053 32.2452C15.4633 32.0862 15.1794 31.2573 14.552 29.453C14.4197 29.0826 14.2261 28.5122 14.1177 28.1889C14.0092 27.8657 13.8944 27.5486 13.8582 27.4839C13.8221 27.4191 13.7801 27.143 13.7737 26.8664C13.7673 26.5897 13.7376 25.9857 13.7014 25.5148C13.6291 24.5564 13.6169 23.5747 13.6775 23.5747C13.6956 23.5747 13.8524 23.698 14.0215 23.8509C14.299 24.1037 14.7152 24.4207 15.5053 24.9973C15.8551 25.2501 16.7599 25.7847 16.9832 25.8671C17.2065 25.9494 17.484 25.8557 17.7674 25.591L17.9965 25.3796L17.9662 24.7973C17.93 24.1037 17.9545 24.1332 17.0433 23.5395C15.7402 22.6811 14.8779 21.9289 14.013 20.8825C13.3978 20.1422 12.9816 19.7366 12.6679 19.5775C12.3542 19.4185 11.6296 19.362 11.2617 19.4687ZM4.14952 27.991C4.25584 28.0947 4.23405 28.608 4.10167 29.0841C4.0506 29.2481 4.01029 29.4151 3.98099 29.584C3.98099 29.6249 4.30635 30.0073 4.70454 30.4419C5.10274 30.8765 5.44086 31.277 5.46478 31.3412C5.50678 31.4707 5.3441 31.7411 5.22927 31.7411C5.18142 31.7411 4.93421 31.5883 4.66839 31.4003C4.40257 31.2122 4.08359 31.0003 3.95653 30.9299C3.66094 30.7595 3.62479 30.789 3.41958 31.4122L3.26009 31.8707L3.4653 32.0644C3.69443 32.2716 3.72474 32.3939 3.58013 32.511C3.50145 32.57 3.38077 32.5524 2.84435 32.3877C2.07826 32.1525 1.99958 32.0996 2.09634 31.8883C2.1495 31.7764 2.21064 31.7411 2.3494 31.7411C2.55461 31.7411 2.77152 31.565 2.77152 31.3884C2.79046 31.2357 2.82085 31.0845 2.86242 30.9361C2.9225 30.7123 2.93473 30.5833 2.8922 30.5419C2.84967 30.5004 2.42808 30.4657 1.93951 30.4481L1.05274 30.4186L1.07081 30.2114C1.07666 30.0995 1.10696 29.9881 1.13674 29.9586C1.16651 29.929 1.63169 29.8057 2.17449 29.6762C2.71729 29.5467 3.20586 29.4001 3.26009 29.353C3.31432 29.3058 3.38077 29.1649 3.40523 29.0473C3.47753 28.6769 3.67104 28.2009 3.80927 28.0542C3.94749 27.9076 4.04106 27.8854 4.14952 27.991Z" fill="white"/>
<path id="Vector_23" d="M33.1771 20.9249V21.272L32.8049 21.2896L32.4248 21.3072L32.4067 21.6698L32.3887 22.0402H33.899V22.7474H33.1771V24.2108L32.8049 24.2284L32.4248 24.2461V24.9516H33.9309L33.949 23.8461L33.9612 22.7411L34.3111 22.7588L34.655 22.7764L34.6731 23.139L34.6912 23.5094H35.4695V24.2207L35.8491 24.2031L36.2212 24.1854V23.5405L35.8491 23.5229L35.4695 23.5053V21.272L35.8012 21.2834C35.9878 21.2953 36.1628 21.272 36.1994 21.2362C36.2361 21.2005 36.2526 21.0482 36.2414 20.8897L36.2234 20.6016L35.8512 20.584L35.4716 20.5664V21.2777H34.6848V20.5721H33.1771V20.9249ZM34.6848 21.6595V22.0418H33.9612V21.3424L34.1904 21.3186C34.7273 21.2658 34.6848 21.2362 34.6848 21.6595Z" fill="black"/>
<path id="Vector_24" d="M30.8848 22.3958V22.7485H31.6689V22.043H30.8848V22.3958Z" fill="black"/>
<path id="Vector_25" d="M39.2694 29.7141V30.0964H38.4805L38.4985 30.459L38.5166 30.8294H39.2402L39.2583 30.459L39.2763 30.0964H40.0004L39.9823 29.726L39.9643 29.3634L39.6203 29.3457L39.2705 29.3281L39.2694 29.7141Z" fill="black"/>
<path id="Vector_26" d="M17.9766 33.3573V35.9144H23.2849V30.8008H17.9766V33.3573ZM22.5008 33.3868V35.2093H18.7006V33.4283C18.7006 32.444 18.7187 31.6234 18.7426 31.6058C18.7666 31.5882 19.6172 31.5649 20.6427 31.5649H22.5008V33.3868Z" fill="black"/>
<path id="Vector_27" d="M19.4844 33.3864V34.5033H21.7784L21.7662 33.3983L21.7481 32.2991L20.6199 32.2814L19.486 32.2695L19.4844 33.3864Z" fill="black"/>
<path id="Vector_28" d="M30.8848 35.5613V35.914H31.6689V35.209H30.8848V35.5613Z" fill="black"/>
<path id="Vector_29" d="M1.59174 37.7044C1.57366 37.7453 1.57366 38.1567 1.58004 38.6213L1.59812 39.4735H2.08084L2.11061 39.0031C2.14092 38.5509 2.14676 38.5333 2.2919 38.5333C2.43704 38.5333 2.44235 38.5509 2.47266 39.0031L2.50296 39.4735H2.98569V38.9306C2.98569 38.4898 2.96123 38.3722 2.87085 38.2722C2.7321 38.1256 2.34613 38.1018 2.23289 38.237C2.11965 38.3722 2.08244 38.296 2.08244 37.9551V37.6495L1.85277 37.6433C1.72465 37.6376 1.60396 37.6671 1.59174 37.7044Z" fill="white"/>
<path id="Vector_30" d="M8.55883 37.6308C8.55883 37.6427 8.45622 38.0659 8.32969 38.5772C8.14256 39.3476 8.11226 39.518 8.18456 39.5413C8.20615 39.5509 8.2301 39.5544 8.25363 39.5513C8.27716 39.5482 8.29929 39.5386 8.31747 39.5237C8.38392 39.4533 8.80019 37.7194 8.76404 37.6665C8.73959 37.6251 8.57106 37.6002 8.55883 37.6308Z" fill="white"/>
<path id="Vector_31" d="M9.32518 37.6663C9.28265 37.7306 8.90891 39.2769 8.90306 39.4121C8.89668 39.4883 8.93283 39.5292 9.00939 39.5292C9.10562 39.5292 9.14815 39.4256 9.2869 38.8242C9.37728 38.4361 9.47989 38.0186 9.51604 37.901C9.55219 37.7834 9.55804 37.672 9.53996 37.6544C9.50868 37.6309 9.46974 37.6192 9.43029 37.6214C9.39084 37.6235 9.35353 37.6395 9.32518 37.6663Z" fill="white"/>
<path id="Vector_32" d="M23.8887 37.807C23.8887 37.9717 23.9009 37.9774 24.1178 37.9624C24.3049 37.9448 24.3411 37.921 24.3411 37.8039C24.3411 37.6868 24.3108 37.6625 24.1178 37.6511C23.9009 37.6366 23.8887 37.6485 23.8887 37.807Z" fill="white"/>
<path id="Vector_33" d="M26.1979 37.691C26.1735 37.7319 26.0528 38.1614 25.9321 38.6375C25.7513 39.3627 25.7274 39.5181 25.7997 39.5425C25.8224 39.5518 25.8472 39.5551 25.8715 39.552C25.8959 39.5489 25.919 39.5395 25.9385 39.5249C26.0049 39.4544 26.4207 37.7262 26.3845 37.6677C26.3367 37.5967 26.2521 37.6086 26.1979 37.691Z" fill="white"/>
<path id="Vector_34" d="M33.0213 37.6734C33.0017 37.7261 32.9933 37.7822 32.9969 37.8382C32.9969 37.9615 33.0213 37.9734 33.2744 37.9734C33.5275 37.9734 33.5461 37.9672 33.528 37.8143C33.5099 37.6791 33.4796 37.6589 33.2808 37.6558C33.1558 37.6501 33.033 37.6615 33.0213 37.6734Z" fill="white"/>
<path id="Vector_35" d="M35.6153 37.7044C35.5972 37.7453 35.5972 38.1567 35.6031 38.6213L35.6212 39.4735H36.1039L36.122 39.0503C36.14 38.6213 36.2246 38.4566 36.3995 38.5214C36.4659 38.5509 36.4962 38.6799 36.5058 39.0151L36.5239 39.4735H37.0066V38.9363C37.0066 38.4898 36.9885 38.3722 36.8918 38.2722C36.753 38.1256 36.367 38.1018 36.2538 38.237C36.1406 38.3722 36.1028 38.296 36.1028 37.9551V37.6495L35.8737 37.6433C35.7482 37.6376 35.6275 37.6671 35.6153 37.7044Z" fill="white"/>
<path id="Vector_36" d="M3.63608 37.807C3.52976 37.8718 3.43725 37.9717 3.43725 38.0303C3.43571 38.0592 3.42653 38.0872 3.4106 38.1116C3.39467 38.136 3.37254 38.156 3.34634 38.1696C3.2985 38.1872 3.25596 38.2639 3.25596 38.3463C3.25485 38.3806 3.26253 38.4147 3.27831 38.4455C3.29409 38.4762 3.31747 38.5027 3.34634 38.5224C3.4128 38.5462 3.43725 38.6519 3.43725 38.928C3.43725 39.4217 3.50956 39.5098 3.88967 39.4865C4.16666 39.4689 4.19111 39.457 4.19111 39.3218C4.19111 39.2181 4.16081 39.1751 4.07043 39.1751C3.96782 39.1751 3.94975 39.128 3.93167 38.8643C3.9136 38.5825 3.92583 38.5535 4.07043 38.5017C4.26926 38.4312 4.26341 38.1784 4.07043 38.1784C3.97367 38.1784 3.9439 38.1313 3.93167 37.9256C3.90775 37.6485 3.90137 37.6423 3.63608 37.807Z" fill="white"/>
<path id="Vector_37" d="M4.81277 37.8019C4.67401 37.8723 4.5831 37.9604 4.5831 38.0251C4.58196 38.055 4.57307 38.0841 4.55727 38.1098C4.54146 38.1354 4.51926 38.1567 4.49272 38.1718C4.46582 38.185 4.44318 38.2052 4.42724 38.2302C4.4113 38.2551 4.40269 38.2838 4.40234 38.3132C4.40707 38.3847 4.43935 38.4519 4.49272 38.5012C4.55333 38.5484 4.5831 38.6836 4.5831 38.9069C4.5831 39.3731 4.68571 39.5005 5.06583 39.5005C5.22851 39.5005 5.37364 39.4829 5.38481 39.4534C5.43265 39.3767 5.3242 39.1773 5.23967 39.1773C5.18651 39.1773 5.14344 39.0773 5.11899 38.883C5.07699 38.5422 5.08922 38.5012 5.2519 38.5012C5.33643 38.5012 5.3662 38.4598 5.3662 38.3246C5.3662 38.178 5.34228 38.1484 5.22159 38.1484C5.08922 38.1484 5.07699 38.1308 5.10729 37.9133C5.14451 37.649 5.12643 37.6371 4.81277 37.8019Z" fill="white"/>
<path id="Vector_38" d="M37.6589 37.8069C37.5526 37.8716 37.4601 37.9716 37.4601 38.0302C37.4589 38.0593 37.4499 38.0876 37.4341 38.1123C37.4182 38.137 37.396 38.1573 37.3697 38.1711C37.3428 38.1843 37.3201 38.2045 37.3042 38.2295C37.2883 38.2544 37.2796 38.2831 37.2793 38.3125C37.284 38.384 37.3163 38.4512 37.3697 38.5005C37.4298 38.5523 37.4601 38.6886 37.4601 38.9352C37.4601 39.4232 37.5324 39.5112 37.9125 39.4879C38.19 39.4703 38.2139 39.4584 38.2139 39.3232C38.2139 39.2196 38.1841 39.1766 38.0932 39.1766C37.9906 39.1766 37.9726 39.1294 37.9545 38.8658C37.9364 38.5839 37.9486 38.5549 38.0932 38.5031C38.2926 38.4327 38.2862 38.1799 38.0932 38.1799C37.997 38.1799 37.9667 38.1327 37.9545 37.9271C37.9306 37.6484 37.9247 37.6421 37.6589 37.8069Z" fill="white"/>
<path id="Vector_39" d="M5.6942 38.2245C5.68197 38.266 5.67612 38.6716 5.68197 39.1181L5.70058 39.9413H5.91323C6.11791 39.9413 6.12589 39.9351 6.14237 39.6942L6.16044 39.4533L6.47942 39.4829C6.77501 39.5119 6.80532 39.5062 6.9579 39.3238C7.18703 39.0596 7.19288 38.5892 6.96374 38.3307C6.88144 38.2344 6.76637 38.1702 6.63952 38.1496C6.51266 38.1291 6.38245 38.1537 6.27262 38.2188C6.17001 38.2779 6.13386 38.2779 6.11313 38.2188C6.07432 38.1251 5.73673 38.1251 5.6942 38.2245ZM6.52674 38.5421C6.67135 38.6716 6.6655 38.9829 6.51451 39.1181C6.40021 39.2181 6.38798 39.2181 6.27315 39.1181C6.12855 38.9892 6.11632 38.6949 6.25507 38.5483C6.37576 38.4188 6.38798 38.4188 6.52674 38.5421Z" fill="white"/>
<path id="Vector_40" d="M7.44311 38.2302C7.42252 38.3129 7.41837 38.3987 7.43089 38.483C7.44896 38.6384 7.47289 38.6472 7.69033 38.6472H7.93169V38.4125C7.93169 38.183 7.92531 38.1773 7.70255 38.1597C7.54572 38.1478 7.46704 38.1654 7.44311 38.2302Z" fill="white"/>
<path id="Vector_41" d="M9.62661 38.1965C9.59684 38.2483 9.98865 39.3134 10.0913 39.431C10.1274 39.4719 10.2359 39.5014 10.3385 39.4895C10.5075 39.4719 10.5378 39.4377 10.6463 39.1367C10.7127 38.9487 10.785 38.7959 10.8031 38.7959C10.8212 38.7959 10.8993 38.9513 10.9658 39.131C11.0721 39.4662 11.0806 39.4719 11.3098 39.4719H11.5331L11.768 38.8446C11.8951 38.5037 11.9807 38.2037 11.961 38.1861C11.8963 38.1597 11.8264 38.1477 11.7563 38.1509C11.557 38.1509 11.4905 38.2509 11.4304 38.6389C11.3773 38.9917 11.2795 38.9741 11.1646 38.5871C11.062 38.2245 11.0014 38.1519 10.7967 38.1519C10.5921 38.1519 10.5309 38.2224 10.4283 38.6047C10.3863 38.7751 10.3321 38.9155 10.3076 38.9155C10.2545 38.9155 10.1327 38.5394 10.1327 38.3804C10.128 38.321 10.1025 38.265 10.0604 38.2219C9.98281 38.1437 9.67499 38.126 9.62661 38.1965Z" fill="white"/>
<path id="Vector_42" d="M12.1059 38.1845C12.0879 38.2022 12.1724 38.5021 12.2989 38.843L12.5339 39.4719H12.7636C12.9986 39.4719 12.9986 39.4662 13.107 39.131C13.1676 38.9487 13.2399 38.7958 13.2702 38.7958C13.3005 38.7958 13.3665 38.9512 13.4271 39.131C13.5414 39.4662 13.5414 39.4719 13.7769 39.4719H14.0119L14.2282 38.8725C14.3489 38.5373 14.4754 38.2788 14.5058 38.2845C14.5361 38.2902 14.6626 38.5669 14.7833 38.8901L14.9959 39.4719H15.2309C15.4664 39.4719 15.4664 39.4719 15.5871 39.1015C15.6536 38.9015 15.7195 38.7389 15.7376 38.7389C15.7556 38.7389 15.8285 38.9031 15.8944 39.1087C16.0034 39.4325 16.0331 39.4714 16.19 39.491C16.2867 39.503 16.3893 39.4853 16.4255 39.4501C16.5159 39.3615 16.9444 38.2509 16.9082 38.1918C16.8657 38.1213 16.5462 38.1452 16.4797 38.2213C16.4293 38.3187 16.3967 38.4239 16.3835 38.5321C16.341 38.7668 16.2506 38.9668 16.2144 38.9139C16.2022 38.8963 16.1421 38.7259 16.0757 38.5321C15.955 38.1794 15.955 38.1794 15.7195 38.1794H15.4845L15.3819 38.5259C15.3287 38.7202 15.2554 38.8844 15.2192 38.8963C15.1831 38.9082 15.1405 38.7964 15.1224 38.6492C15.056 38.183 15.0262 38.1618 14.5073 38.1618C14.2415 38.1618 14.0368 38.1908 14.0124 38.226C13.9642 38.3354 13.9298 38.45 13.9098 38.5674C13.8736 38.7228 13.8194 38.8492 13.7833 38.8554C13.7471 38.8616 13.6807 38.7378 13.6323 38.5788C13.5121 38.197 13.4696 38.1498 13.2766 38.1498C13.0597 38.1498 12.9991 38.226 12.9045 38.5788C12.8199 38.9196 12.7232 38.9082 12.6386 38.5555C12.6158 38.4403 12.5801 38.3279 12.5323 38.2203C12.4797 38.1493 12.1724 38.1193 12.1059 38.1845Z" fill="white"/>
<path id="Vector_43" d="M17.9645 38.3188C17.7837 38.4773 17.7656 38.526 17.7656 38.8244C17.7656 39.1228 17.7837 39.1709 17.9645 39.33C18.1277 39.4709 18.2122 39.5004 18.4897 39.5004C18.6705 39.5004 18.8815 39.4709 18.9682 39.43C19.1372 39.359 19.3238 39.1243 19.2638 39.0673C19.1851 38.9969 18.7991 39.0321 18.6965 39.1264C18.4738 39.3258 18.1962 39.0616 18.2622 38.7208C18.3106 38.4913 18.4918 38.4099 18.6726 38.5265C18.8417 38.6384 19.1612 38.6498 19.2218 38.5503C19.2457 38.5146 19.1851 38.4151 19.0708 38.3151C18.9076 38.1737 18.8294 38.1504 18.5216 38.1504C18.2138 38.1504 18.1335 38.1701 17.9645 38.3188Z" fill="white"/>
<path id="Vector_44" d="M19.6288 38.2966C19.5443 38.3784 19.4901 38.467 19.5081 38.496C19.5746 38.596 19.9244 38.6022 20.0929 38.508C20.2317 38.4318 20.2678 38.4318 20.3524 38.496C20.4911 38.6079 20.4247 38.6515 19.9802 38.7375C19.4555 38.8411 19.2684 39.1135 19.5459 39.384C19.6788 39.513 20.0775 39.5425 20.2758 39.4358C20.3662 39.3943 20.421 39.3943 20.481 39.4415C20.5714 39.5119 20.9755 39.5005 20.9515 39.4239C20.9393 39.4005 20.9335 39.1711 20.9335 38.9125C20.9335 38.4836 20.9154 38.4246 20.7825 38.2956C20.6496 38.1666 20.5836 38.1484 20.2094 38.1484C19.8351 38.1484 19.7617 38.1671 19.6288 38.2966ZM20.3348 39.0959C20.1753 39.2192 20.0509 39.2368 19.9967 39.1477C19.9063 39.0006 20.2806 38.8069 20.4194 38.9302C20.4555 38.9607 20.4252 39.0193 20.3348 39.0959Z" fill="white"/>
<path id="Vector_45" d="M21.4995 38.2604C21.095 38.5013 21.095 39.1478 21.4932 39.383C21.759 39.5415 22.2476 39.5415 22.4586 39.3768C22.8021 39.1178 22.8021 38.5308 22.4586 38.2661C22.2534 38.1076 21.7585 38.1076 21.4995 38.2604ZM22.0843 38.5013C22.2534 38.5894 22.2476 39.0597 22.0785 39.1478C22.0427 39.1708 22.0007 39.1831 21.9578 39.1831C21.9149 39.1831 21.8729 39.1708 21.8371 39.1478C21.6862 39.0654 21.6745 38.707 21.8191 38.5484C21.9339 38.4246 21.9339 38.4246 22.0843 38.5013Z" fill="white"/>
<path id="Vector_46" d="M23.9046 38.2434C23.8924 38.2786 23.8924 38.5666 23.8988 38.8899L23.9168 39.4716H24.339V38.19L24.1337 38.1843C24.0264 38.1786 23.9237 38.2076 23.9046 38.2434Z" fill="white"/>
<path id="Vector_47" d="M24.7324 38.7658V39.4242C24.7324 39.4537 24.835 39.4713 24.9621 39.4713H25.1848L25.2151 39.0833C25.2455 38.6953 25.3539 38.472 25.4868 38.5249C25.5931 38.5601 25.6995 38.4425 25.6995 38.284C25.6995 38.1721 25.6692 38.1488 25.5182 38.1488C25.4729 38.1467 25.4277 38.1546 25.386 38.1719C25.3443 38.1892 25.3072 38.2155 25.2773 38.2487C25.2167 38.3487 25.2167 38.3487 25.1567 38.2487C25.1267 38.2155 25.0895 38.1892 25.0477 38.1719C25.0059 38.1546 24.9607 38.1467 24.9153 38.1488H24.734L24.7324 38.7658Z" fill="white"/>
<path id="Vector_48" d="M26.6255 38.2245C26.6139 38.266 26.6075 38.6716 26.6139 39.1181L26.6319 39.9413H26.8446C27.0498 39.9413 27.0572 39.9351 27.0737 39.6942L27.0918 39.4533L27.4108 39.4829C27.7064 39.5119 27.7367 39.5062 27.8892 39.3238C28.1184 39.0596 28.1242 38.5892 27.8951 38.3307C27.8128 38.2344 27.6977 38.1702 27.5709 38.1496C27.444 38.1291 27.3138 38.1537 27.204 38.2188C27.1014 38.2779 27.0652 38.2779 27.0445 38.2188C27.0057 38.1251 26.6686 38.1251 26.6255 38.2245ZM27.4581 38.5421C27.6027 38.6716 27.5968 38.9829 27.4459 39.1181C27.3316 39.2181 27.3193 39.2181 27.205 39.1181C27.0599 38.9892 27.0455 38.7555 27.1806 38.5716C27.289 38.4188 27.3135 38.4131 27.4581 38.5421Z" fill="white"/>
<path id="Vector_49" d="M28.5082 38.2738C28.4242 38.3386 28.3487 38.4266 28.3487 38.4738C28.3487 38.5857 28.7171 38.6209 28.8739 38.5209C29.0308 38.4209 29.2238 38.4386 29.2238 38.5618C29.2238 38.6209 29.1031 38.6737 28.8617 38.7266C28.6624 38.7675 28.4513 38.8442 28.3971 38.897C28.3303 38.9651 28.293 39.0556 28.293 39.1498C28.293 39.244 28.3303 39.3346 28.3971 39.4026C28.5481 39.5316 28.9946 39.5316 29.1451 39.4026C29.2477 39.3146 29.2599 39.3146 29.3322 39.4083C29.3854 39.4788 29.471 39.5083 29.5858 39.4907L29.7543 39.4731L29.7426 38.9442C29.724 38.2448 29.6459 38.1505 29.0728 38.1505C28.7559 38.1484 28.6363 38.1702 28.5082 38.2738ZM29.2381 39.0555C29.1903 39.1731 28.9064 39.2436 28.8218 39.1617C28.7373 39.0799 28.8585 38.9322 29.0345 38.9027C29.2105 38.8732 29.2806 38.9359 29.2381 39.0535V39.0555Z" fill="white"/>
<path id="Vector_50" d="M30.0221 38.1833C30.004 38.2066 30.0753 38.3418 30.1912 38.4889C30.3071 38.636 30.4038 38.777 30.4038 38.7997C30.4038 38.8225 30.3076 38.9821 30.1912 39.1411C30.0747 39.3002 29.9785 39.4406 29.9785 39.4644C29.9785 39.4882 30.0933 39.4996 30.2321 39.4877C30.449 39.4758 30.5096 39.4406 30.6117 39.2805C30.6781 39.1769 30.7504 39.0924 30.7749 39.0862C30.7994 39.08 30.8653 39.1805 30.9376 39.2934C31.0439 39.4815 31.0827 39.5007 31.3358 39.5007C31.4868 39.5007 31.6074 39.483 31.6074 39.4592C31.5357 39.3348 31.4528 39.2167 31.3597 39.1064L31.1205 38.7915L31.3613 38.5091C31.4942 38.3537 31.591 38.2092 31.5665 38.1859C31.5421 38.1626 31.4278 38.1506 31.3007 38.1506C31.1199 38.1506 31.0471 38.1859 30.945 38.3268C30.8722 38.4211 30.794 38.5034 30.776 38.5034C30.7579 38.5034 30.6973 38.4211 30.6611 38.3268C30.6011 38.1683 30.5649 38.1506 30.3294 38.1506C30.1779 38.1481 30.0466 38.1657 30.0221 38.1833Z" fill="white"/>
<path id="Vector_51" d="M31.8742 38.224C31.8572 38.4451 31.8531 38.667 31.862 38.8886L31.88 39.4704H32.3054L32.3415 39.0767C32.3777 38.6711 32.4739 38.4711 32.619 38.5239C32.7094 38.5592 32.9082 38.3007 32.8482 38.2064C32.795 38.1245 32.4983 38.1302 32.4016 38.2183C32.3351 38.2773 32.3171 38.2773 32.2953 38.2183C32.2543 38.1245 31.9162 38.1245 31.8742 38.224Z" fill="white"/>
<path id="Vector_52" d="M33.0216 38.2367C33.0035 38.2719 33.0035 38.5662 33.0093 38.8894L33.0274 39.4712H33.5101V38.1839L33.281 38.1719C33.1481 38.1704 33.0333 38.1958 33.0216 38.2367Z" fill="white"/>
<path id="Vector_53" d="M33.9377 38.3301C33.6602 38.6472 33.7745 39.2351 34.1366 39.376C34.3173 39.4527 34.4082 39.447 34.6432 39.3527C34.7336 39.3175 34.7495 39.3294 34.7336 39.4408C34.7097 39.6351 34.5348 39.7231 34.3838 39.6288C34.2792 39.5837 34.1664 39.5597 34.052 39.5584C33.883 39.5584 33.8394 39.5822 33.8394 39.676C33.8394 39.8702 34.1228 39.9992 34.5454 39.9992C34.8708 39.9992 34.9431 39.9759 35.0818 39.8438C35.2328 39.6884 35.2413 39.6677 35.245 38.9326C35.2509 38.1804 35.2509 38.1747 35.1121 38.1555C35.0125 38.1467 34.9123 38.1647 34.8224 38.2073C34.7161 38.2659 34.6655 38.2659 34.6097 38.213C34.5677 38.1721 34.4348 38.1426 34.3141 38.1426C34.1424 38.1478 34.059 38.1887 33.9377 38.3301ZM34.6289 38.5005C34.7676 38.5767 34.7884 38.9238 34.6533 39.0295C34.412 39.2232 34.1584 38.8709 34.3455 38.5943C34.4625 38.4239 34.4683 38.4182 34.631 38.5005H34.6289Z" fill="white"/>
<path id="Vector_54" d="M38.6191 38.2834C38.3416 38.5657 38.4984 38.8771 38.9567 38.9475C39.2465 38.9947 39.4272 39.103 39.3671 39.1946C39.3071 39.2863 39.0715 39.2827 38.9806 39.1946C38.878 39.0947 38.5644 39.0828 38.4862 39.177C38.4378 39.2356 38.4623 39.2806 38.5824 39.3765C38.7026 39.4723 38.8302 39.5003 39.1316 39.5003C39.4814 39.5003 39.542 39.4827 39.6989 39.3299C39.7951 39.2356 39.8738 39.118 39.8738 39.0708C39.8738 38.8828 39.6563 38.7186 39.3007 38.6476C39.1077 38.6124 38.9328 38.5481 38.9206 38.5124C38.8844 38.4088 39.0896 38.3539 39.2161 38.4305C39.3427 38.5072 39.7286 38.5243 39.7829 38.4481C39.8015 38.4186 39.7409 38.3363 39.6563 38.2715C39.415 38.0897 38.7999 38.0954 38.6191 38.2834Z" fill="white"/>
<path id="Vector_55" d="M7.46245 39.0068C7.438 39.0301 7.41992 39.1534 7.41992 39.2772V39.5062L7.67936 39.4886C7.93295 39.471 7.93295 39.471 7.93295 39.2358C7.93295 39.0006 7.92657 39.0006 7.7203 38.983C7.60121 38.9716 7.48638 38.983 7.46245 39.0068Z" fill="white"/>
<path id="Vector_56" d="M16.9136 39.0541C16.8933 39.1369 16.8892 39.2226 16.9014 39.3069C16.9195 39.4623 16.9375 39.4716 17.1789 39.4716C17.3177 39.4716 17.4325 39.454 17.4325 39.4245V39.1779C17.4325 38.978 17.4266 38.9707 17.1911 38.9707C17.0343 38.9723 16.9317 38.9997 16.9136 39.0541Z" fill="white"/>
<path id="Vector_57" d="M22.9771 38.9944C22.9771 39.012 22.9707 39.1296 22.9707 39.2472L22.9648 39.4705H23.4965V39.2353C23.4965 39.0001 23.4965 39.0001 23.2434 38.9825C23.0972 38.9711 22.9829 38.9768 22.9771 38.9944Z" fill="white"/>
</g>
</svg>
