<svg width="40" height="40" viewBox="0 0 40 40" fill="none" xmlns="http://www.w3.org/2000/svg">
<path fill-rule="evenodd" clip-rule="evenodd" d="M8.92685 32.5363C8.90087 32.6401 8.86843 32.7454 8.82952 32.852C8.57288 33.5536 8.26567 33.9718 7.90718 34.1068C7.80415 34.166 7.67607 34.2167 7.52247 34.2587L6.92935 34.4361C6.89282 34.4446 6.84505 34.4531 6.78652 34.4616C6.72798 34.4699 6.6952 34.4658 6.68794 34.4488C6.68044 34.432 6.71721 34.3942 6.79752 34.3349L6.94036 34.2335C6.94761 34.225 7.08296 34.132 7.34685 33.9548C8.10832 33.4307 8.48929 33.0212 8.48929 32.7253C8.41553 32.7593 8.31695 32.7761 8.19238 32.7761C7.86316 32.7171 7.69808 32.5649 7.69808 32.3197C7.69808 32.134 7.77863 31.8721 7.93996 31.534C8.12284 31.1623 8.28394 30.9764 8.42302 30.9764C8.5771 30.9764 8.71057 31.0441 8.82413 31.1791C8.93746 31.3146 8.99413 31.4706 8.99413 31.6481C9.00103 31.7044 9.00476 31.7913 9.00511 31.9087C9.12786 31.887 9.22872 31.8264 9.30793 31.7271C9.32222 31.7185 9.34572 31.6888 9.37798 31.6379C9.41047 31.5869 9.43374 31.5616 9.44825 31.5616L9.513 31.6125C9.53466 31.6296 9.55977 31.6379 9.58857 31.6379C9.71115 31.6379 9.80816 31.5702 9.88073 31.4344C9.93073 31.3326 9.96299 31.2817 9.97797 31.2817C9.99963 31.2987 10.0356 31.3243 10.086 31.3579C10.2155 31.3921 10.3416 31.2649 10.4644 30.9764C10.4999 30.9764 10.5436 30.9976 10.5941 31.04C10.6588 31.0232 10.7056 31.0061 10.7344 30.9891C10.7704 31.0994 10.7883 31.1798 10.7883 31.2307C10.7883 31.3497 10.7704 31.443 10.7344 31.5107C10.6263 31.6379 10.5107 31.7353 10.3883 31.8033L10.0535 31.9941C10.039 31.9941 9.95631 32.0279 9.8047 32.0956L9.68581 32.1468L9.49134 32.2611L9.38351 32.2993C9.31223 32.3246 9.15972 32.4034 8.92685 32.5363ZM17.3142 32.3076L17.33 32.2737C17.33 32.9726 17.5377 33.3217 17.9534 33.3217C18.1647 33.3217 18.3505 33.2332 18.5113 33.0565C18.6496 32.8715 18.7881 32.6904 18.9266 32.5136C18.9702 32.4803 18.9958 32.4549 19.003 32.4379C19.0194 32.4152 19.0336 32.3959 19.0456 32.38C19.0905 32.2336 19.1571 32.0756 19.2449 31.906C19.526 31.3692 19.8138 31.1006 20.1092 31.1006L20.2172 31.1133C20.224 31.1377 20.2301 31.1621 20.2355 31.1865C20.3354 31.2285 20.3943 31.2495 20.4121 31.2495C20.51 31.2495 20.6149 31.1434 20.7269 30.9306C20.7828 30.8245 20.8248 30.7754 20.8527 30.7837C20.9086 30.8001 20.9122 30.8816 20.8632 31.0288C20.8422 31.1023 20.8143 31.18 20.7794 31.2617C20.5972 31.7193 20.3982 31.9482 20.1816 31.9482V31.9409C20.1438 31.9327 20.0979 31.9124 20.0441 31.8801C19.9722 31.8368 19.9218 31.8106 19.893 31.8022C19.8138 31.7848 19.7222 31.8216 19.6177 31.9124C19.5129 32.0035 19.4609 32.0966 19.4609 32.1919L19.4575 32.1941C19.4756 32.2573 19.5355 32.3702 19.6374 32.5327C19.7612 32.7305 19.8237 32.8335 19.8237 32.842C19.8237 32.9346 19.7666 33.063 19.6537 33.2269C19.5409 33.3911 19.4444 33.4731 19.3642 33.4731C19.3203 33.4731 19.242 33.448 19.1292 33.3974C19.0158 33.3469 18.9301 33.3217 18.8718 33.3217C18.7627 33.3217 18.6678 33.3767 18.5878 33.4857C18.551 33.5365 18.4817 33.6624 18.3796 33.8646C18.3069 34.016 18.2411 34.1296 18.1828 34.2053C17.9935 34.4665 17.8035 34.5968 17.6142 34.5968C17.3519 34.5968 17.1547 34.4411 17.0237 34.1296C16.9216 33.8856 16.8707 33.5952 16.8707 33.2586L16.8898 33.2177C16.8835 33.2189 16.8771 33.2195 16.8707 33.2195C16.8707 32.6405 16.9768 31.6079 17.1892 30.1223C17.2402 29.8956 17.387 29.4886 17.6286 28.9008L17.6724 28.8758C17.6797 28.9008 17.6762 28.9681 17.6614 29.0771L17.6176 29.4046L17.431 30.9406C17.3652 31.4863 17.3318 31.9187 17.3318 32.2375C17.3259 32.2613 17.3201 32.2847 17.3142 32.3076ZM24.5619 31.6418C24.6667 31.5268 24.7434 31.4116 24.792 31.2965C24.9372 30.9199 25.0349 30.6628 25.0855 30.5258C25.1941 30.2518 25.3388 30.1148 25.52 30.1148C25.6575 30.1148 25.7733 30.1917 25.8673 30.346C26.0048 30.0722 26.0879 29.9352 26.1173 29.9352C26.1608 29.9352 26.2108 29.9864 26.2691 30.0892C26.327 30.1917 26.3559 30.2735 26.3559 30.3332C26.3559 30.5386 26.3089 30.7228 26.215 30.8854C26.1064 31.0738 25.9684 31.1681 25.8022 31.1681C25.7515 31.1681 25.6828 31.1467 25.596 31.1039C25.5092 31.0611 25.44 31.0394 25.3895 31.0394C25.2809 31.0394 25.1904 31.1253 25.1182 31.2965C24.9372 31.7158 24.836 31.9471 24.8142 31.9898C24.6896 32.2252 24.568 32.4258 24.449 32.5916C24.4313 32.65 24.4117 32.7088 24.39 32.768C24.1325 33.471 23.8241 33.89 23.4643 34.0252C23.3609 34.0846 23.2324 34.1354 23.0782 34.1775L22.483 34.3553C22.4463 34.3638 22.3984 34.3723 22.3396 34.3808C22.2809 34.3891 22.248 34.3849 22.2407 34.3679C22.2332 34.3511 22.27 34.3132 22.3507 34.2539L22.494 34.1522C22.5013 34.1437 22.6371 34.0505 22.902 33.873C23.6662 33.3479 24.0486 32.9376 24.0486 32.6411C23.9745 32.6752 23.8756 32.6919 23.7506 32.6919C23.4202 32.6328 23.2545 32.4803 23.2545 32.2347C23.2545 32.0486 23.3353 31.7862 23.4972 31.4474C23.6808 31.075 23.8425 30.8887 23.9821 30.8887C24.1367 30.8887 24.2706 30.9566 24.3846 31.0918C24.4984 31.2276 24.5552 31.3839 24.5552 31.5617C24.5579 31.5837 24.5602 31.6105 24.5619 31.6418ZM32.7584 31.9737V32.1685C32.7584 32.7153 32.9078 32.9883 33.2067 32.9883C33.2711 32.795 33.3494 32.572 33.4418 32.3197C33.6196 32.362 33.7193 32.5133 33.7405 32.7737C33.7405 33.0852 33.6836 33.3877 33.5698 33.6823C33.4134 34.0776 33.203 34.2749 32.9399 34.2749C32.7906 34.2749 32.6553 34.1889 32.534 34.0164C32.4129 33.8441 32.3455 33.6675 32.3312 33.4865C32.3171 33.3058 32.3098 33.2029 32.3098 33.1775V32.9378L32.326 32.9021C32.3206 32.903 32.3152 32.9034 32.3098 32.9034C32.3098 32.3268 32.4158 31.2985 32.628 29.8192C32.679 29.5934 32.8257 29.1881 33.0672 28.6028L33.1109 28.5778C33.1182 28.6028 33.1147 28.6698 33.0999 28.7784L33.0562 29.1045L32.8697 30.634C32.8039 31.1775 32.7705 31.6081 32.7705 31.9255C32.7665 31.9418 32.7625 31.9578 32.7584 31.9737ZM36.7898 32.903C36.7868 32.9033 36.7838 32.9034 36.7808 32.9034C36.7808 32.3268 36.8868 31.2985 37.099 29.8192C37.1501 29.5934 37.2968 29.1881 37.5382 28.6028L37.582 28.5778C37.5892 28.6028 37.5857 28.6698 37.571 28.7784L37.5272 29.1045L37.3407 30.634C37.275 31.1775 37.2415 31.6081 37.2415 31.9255C37.2385 31.9379 37.2354 31.9502 37.2324 31.9624C37.2346 31.9649 37.237 31.9675 37.2393 31.9702C37.2393 32.2627 37.2612 32.5007 37.3047 32.6842C37.4066 32.9765 37.6064 33.1226 37.9049 33.1226C38.1013 33.1226 38.2757 33.0475 38.4288 32.897C38.6107 32.7135 38.727 32.6135 38.7777 32.5967C38.7996 32.5883 38.8468 32.5839 38.9197 32.5839C38.9778 32.5924 39.029 32.5967 39.0727 32.5967C39.1381 32.5967 39.1853 32.5839 39.2144 32.559C39.3016 32.4923 39.367 32.4004 39.4107 32.2833C39.4252 32.225 39.4435 32.1624 39.4652 32.0955C39.5161 32.1039 39.5671 32.1079 39.6185 32.1079C39.7057 32.1079 39.7892 31.9746 39.8693 31.707C39.9056 31.5904 39.9346 31.5319 39.9565 31.5319C39.9856 31.5319 40 31.5693 40 31.6444C40 31.8783 39.9418 32.1247 39.8255 32.3836C39.6873 32.6926 39.5271 32.8469 39.3454 32.8469C39.2581 32.9973 39.2035 33.0852 39.1818 33.1101C39.0872 33.2354 38.9995 33.298 38.9197 33.298C38.8324 33.2814 38.7633 33.273 38.7124 33.273C38.5889 33.273 38.403 33.4568 38.1557 33.8241C37.9596 34.1248 37.7414 34.2749 37.5011 34.2749C37.0209 34.2749 36.7808 33.8325 36.7808 32.9472C36.7838 32.9323 36.7868 32.9176 36.7898 32.903ZM23.3125 4.72124C23.3325 4.77848 23.3612 4.831 23.3658 4.86986C24.3974 6.86877 24.8477 9.33402 24.4611 11.6448C24.1259 14.0038 22.9654 16.1958 21.2746 17.5159C19.65 18.8524 17.6183 19.4716 15.6519 19.2158C13.1167 18.9859 10.8503 17.106 9.46881 14.6342C8.62195 13.0519 7.65152 11.5371 6.42195 10.3455C5.4394 9.44659 4.14474 8.79679 2.89483 9.1861C1.79686 9.45141 0.864491 10.2409 0 11.045C0.570085 9.04944 1.76161 7.07945 3.5639 6.52785C4.70661 6.1065 5.90085 6.41368 7.03949 6.68059C7.1739 5.61606 7.98686 4.82809 8.86347 4.69785C9.41449 4.53708 9.9844 4.57232 10.5477 4.60295C10.1514 5.00332 9.65601 5.32817 9.47279 5.94413C9.19872 6.81565 9.4972 7.74511 9.84474 8.52184C10.2667 9.46426 10.8151 10.3953 10.8991 11.4841C10.9603 12.1819 10.5396 12.7239 10.188 13.2142C10.5246 14.0713 11.1747 14.7229 11.8995 15.0959C12.8657 15.6057 13.9187 15.8163 14.9597 15.9786C16.8475 16.0238 18.8657 15.4929 20.288 13.9332C21.1076 12.9523 21.6869 11.6015 21.6261 10.1944C21.7263 7.59238 20.0965 5.31371 18.1789 4.2781C16.9997 3.65089 15.7075 3.37274 14.4183 3.40015C13.6922 3.41612 12.7354 3.04146 12.2401 3.88888C12.2414 3.32604 12.1858 2.6411 12.6364 2.27919C13.1901 1.86919 13.8782 1.76134 14.5201 1.81285C14.5281 2.10396 14.7835 2.41275 15.0318 2.24867C15.2719 2.19565 15.2896 1.90453 15.2814 1.66815C14.8892 1.67297 14.4983 1.70511 14.1089 1.75813C14.1252 1.6312 14.1591 1.37544 14.1753 1.24841C14.6151 0.28199 15.6112 0.000520316 16.4703 0.000520316C18.6322 -0.0267932 20.866 1.02177 22.2586 3.02218C22.5922 3.5319 22.9492 4.02244 23.2266 4.5672C23.2464 4.62484 23.2753 4.67706 23.3125 4.72124ZM19.5754 6.20781C20.4548 6.92017 20.7223 8.25824 20.9489 9.42408C17.5737 9.40802 14.1971 9.44176 10.8232 9.40802C10.5951 9.16029 10.4702 8.81786 10.3224 8.50426C10.0279 7.78376 9.89218 6.999 9.88684 6.20299C13.1153 6.2047 16.3454 6.19496 19.5754 6.20781ZM39.954 6.15959C39.8905 6.30269 39.8292 6.4491 39.7709 6.5953C39.418 7.40105 38.7543 7.91881 38.0853 8.30642C36.7961 9.00914 35.3711 9.23588 33.9718 9.39032C30.9916 9.45469 28.0087 9.39032 25.027 9.41914C25.0255 8.30481 24.7962 7.20162 24.4583 6.16602C29.6236 6.17566 34.7888 6.18851 39.954 6.15959ZM36.819 9.95475C36.2371 10.8489 35.5381 11.6706 34.6585 12.1416C33.1345 12.9956 31.4231 13.0858 29.7729 13.2384C28.0263 13.2561 26.2808 13.2384 24.5357 13.2466C24.9197 12.219 25.1722 11.0885 25.1071 9.95796C29.0115 9.9676 32.916 9.96439 36.819 9.95475ZM21.0899 10.1848C20.9529 10.799 20.9433 11.4503 20.7181 12.0356C20.5647 12.518 20.2607 12.8959 19.9594 13.256C16.8597 13.256 13.7587 13.24 10.659 13.2627C10.8951 12.9988 11.0961 12.6982 11.2846 12.3878C11.5955 11.6722 11.404 10.8665 11.1313 10.1831C14.4507 10.1912 17.7705 10.1863 21.0899 10.1848ZM35.9933 32.1672L35.8643 32.7948C35.7497 33.1963 35.6566 33.4655 35.5851 33.6019C35.4485 33.8752 35.2729 34.0632 35.0582 34.1655L34.6708 34.3579C34.4989 34.4432 34.3307 34.4859 34.1655 34.4859C34.1297 34.4859 34.1082 34.4688 34.101 34.4347C34.0795 34.3579 34.1799 34.2168 34.4024 34.0119C34.4739 33.9437 34.6172 33.8112 34.8322 33.6146C35.1118 33.3585 35.341 33.0427 35.5205 32.6668C35.5636 32.5814 35.6566 32.2781 35.7999 31.7572L35.9289 31.2959C36.0004 31.0314 36.0577 30.8989 36.1013 30.8989C36.1365 30.9588 36.1549 31.0015 36.1549 31.027C36.1549 31.2662 36.1012 31.6463 35.9933 32.1672ZM36.2881 29.3923C36.1589 29.6934 36.0368 29.8439 35.9219 29.8439C35.8423 29.7665 35.7274 29.6587 35.5766 29.5213C35.4257 29.384 35.3501 29.289 35.3501 29.2374L35.3717 29.186C35.4149 29.0743 35.4938 28.8677 35.6087 28.5664C35.6375 28.4977 35.7094 28.3472 35.8249 28.1148L35.8679 28.0503C35.8961 28.085 35.9469 28.128 36.0189 28.1793C36.1553 28.3 36.238 28.3857 36.2668 28.4373C36.3456 28.558 36.396 28.6741 36.4176 28.7858C36.4397 28.9322 36.396 29.1343 36.2881 29.3923ZM30.1047 32.1607C30.1047 32.3122 30.0608 32.4593 29.9726 32.602C29.7973 32.888 29.6697 33.0394 29.5892 33.056C29.5745 33.056 29.5413 33.035 29.4906 32.993C29.322 32.8585 29.2343 32.7829 29.2271 32.766C29.1174 32.6819 29.0555 32.6399 29.0408 32.6399C28.9678 32.5812 28.9271 32.5223 28.9201 32.4633L29.1724 31.8076C29.2526 31.648 29.322 31.5175 29.3805 31.4168L29.4466 31.3033C29.4974 31.3284 29.5745 31.3748 29.6769 31.4419C29.801 31.5514 29.8887 31.6354 29.9399 31.6941C30.0348 31.8035 30.086 31.9129 30.0938 32.0221C30.1005 32.0559 30.1047 32.102 30.1047 32.1607ZM31.3331 33.4092C30.9747 34.6702 30.3822 35.5611 29.5563 36.0823C29.2343 36.2843 28.8692 36.385 28.4596 36.385C28.006 36.385 27.6549 36.2232 27.4066 35.8995C27.158 35.5759 27.0339 35.1494 27.0339 34.6197C27.0339 33.7874 27.3444 32.7578 27.9658 31.5304C28.039 31.3874 28.0937 31.3202 28.1304 31.3284C28.1449 31.3369 28.1486 31.3833 28.1416 31.4673C28.1266 31.5514 28.1119 31.6229 28.0974 31.6815L27.7357 32.5894C27.5604 33.0269 27.4723 33.4051 27.4723 33.7243C27.4723 34.6071 27.8966 35.0484 28.7445 35.0484C29.6512 35.0484 30.3678 34.5774 30.8942 33.6362C31.0623 33.3418 31.15 33.0015 31.1573 32.6148L31.1792 31.7069C31.1865 31.4545 31.2484 31.1562 31.3658 30.8116L31.5851 30.3198C31.6435 30.1853 31.691 30.0972 31.7275 30.0549C31.7642 30.0972 31.7787 30.1517 31.7714 30.2189L31.7165 30.6601L31.6618 31.2908C31.6618 31.6608 31.6071 32.1231 31.4974 32.6778C31.4317 33.014 31.3768 33.2577 31.3331 33.4092ZM25.5922 34.1569C25.3726 34.5645 25.263 34.8893 25.263 35.1309L25.4444 35.3182C25.5583 35.4431 25.6149 35.5347 25.6149 35.5928C25.6149 35.7095 25.5842 35.8195 25.5242 35.9238C25.4633 36.0279 25.384 36.08 25.2858 36.08C25.1044 36.08 25.0137 35.9176 25.0137 35.5928C25.0137 35.4014 25.1158 35.0309 25.3199 34.4815C25.5315 33.8986 25.6981 33.62 25.819 33.6448C25.7433 33.8113 25.6679 33.9821 25.5922 34.1569ZM22.141 29.6709C22.1559 29.6373 22.1889 29.5742 22.2406 29.4815C22.248 29.4646 22.2664 29.4394 22.2959 29.4055C22.3181 29.4479 22.3292 29.4815 22.3292 29.5067L22.2739 29.9361L22.2073 30.6436L22.0857 31.7677C22.034 32.2311 21.945 32.6144 21.8196 32.9173L21.565 33.5239C21.4099 33.8858 21.2878 34.0671 21.1992 34.0671L21.1659 33.9785C21.3948 33.0859 21.539 32.3533 21.5981 31.7806L21.6755 30.9848L21.7974 30.593L22.141 29.6709ZM20.5791 37.9185C20.4216 38.1785 20.2893 38.3087 20.1814 38.3087C20.1743 38.3087 20.0814 38.2079 19.9026 38.0067C19.7231 37.8052 19.6338 37.6963 19.6338 37.6794C19.6338 37.6462 19.7231 37.4487 19.9026 37.0879C20.0599 36.7693 20.1528 36.6098 20.1814 36.6098C20.2101 36.6098 20.2817 36.6727 20.3966 36.7985C20.6111 37.0419 20.7185 37.2475 20.7185 37.4152C20.7185 37.5999 20.672 37.7673 20.5791 37.9185ZM20.0097 39.5038C19.8525 39.7639 19.7201 39.8941 19.6123 39.8941C19.6052 39.8941 19.512 39.7933 19.3332 39.5921C19.1545 39.3908 19.0649 39.2816 19.0649 39.2648C19.0649 39.2313 19.1545 39.0341 19.3332 38.6736C19.4908 38.3547 19.5837 38.1954 19.6123 38.1954C19.6409 38.1954 19.7124 38.2583 19.8273 38.3841C20.042 38.6273 20.1494 38.8329 20.1494 39.0006C20.1494 39.1852 20.1029 39.353 20.0097 39.5038ZM19.5157 37.9185C19.3584 38.1785 19.2259 38.3087 19.1187 38.3087C19.1112 38.3087 19.018 38.2079 18.8392 38.0067C18.6604 37.8052 18.5709 37.6963 18.5709 37.6794C18.5709 37.6462 18.6604 37.4487 18.8392 37.0879C18.9967 36.7693 19.0897 36.6098 19.1187 36.6098C19.1469 36.6098 19.2188 36.6727 19.3332 36.7985C19.548 37.0419 19.6551 37.2475 19.6551 37.4152C19.6551 37.5999 19.6087 37.7673 19.5157 37.9185ZM17.8959 39.4909C17.7635 39.7807 17.638 39.9255 17.5202 39.9255C17.4392 39.8511 17.3215 39.7473 17.167 39.6151C17.0124 39.4828 16.935 39.3914 16.935 39.3419L16.9571 39.2922C17.0014 39.1847 17.0822 38.9858 17.1999 38.6957C17.2294 38.6296 17.3031 38.4847 17.4208 38.261L17.4649 38.1989C17.4943 38.2323 17.5459 38.2737 17.6201 38.3231C17.7598 38.4393 17.8445 38.5221 17.874 38.5715C17.9548 38.6876 18.0063 38.7995 18.0285 38.907C18.0506 39.0479 18.0063 39.2425 17.8959 39.4909ZM16.7579 39.5653C16.6255 39.8551 16.5004 40 16.3827 40C16.3012 39.9255 16.1834 39.822 16.0289 39.6895C15.8744 39.5573 15.7969 39.4661 15.7969 39.4164L15.8191 39.3667C15.8634 39.2591 15.9441 39.0602 16.0619 38.7704C16.0913 38.7043 16.1651 38.5591 16.2833 38.3358L16.3273 38.2737C16.3563 38.3067 16.4083 38.3481 16.4821 38.3976C16.6217 38.5137 16.7065 38.5965 16.736 38.6462C16.8167 38.7621 16.8683 38.8739 16.8905 38.9815C16.9131 39.1226 16.8683 39.3169 16.7579 39.5653ZM15.226 31.6382C15.3875 31.1984 15.4684 30.902 15.4684 30.7498C15.4684 30.6567 15.3986 30.4366 15.2589 30.0896C15.134 29.8443 15.0752 29.7045 15.082 29.6707C15.2295 29.1204 15.3546 28.7144 15.4574 28.452C15.6116 28.5025 15.7403 28.6891 15.8437 29.0105C15.9319 29.2729 15.9759 29.5182 15.9759 29.7468C15.9759 30.0514 15.8877 30.4748 15.7109 31.0163C15.6227 31.2871 15.4795 31.7017 15.281 32.2605C15.281 32.3536 15.384 32.4594 15.5898 32.5778C15.7807 32.73 15.8767 32.963 15.8767 33.2759C15.8767 33.877 15.7311 34.5094 15.4409 35.1739C15.1505 35.8379 14.7956 36.3355 14.3761 36.6654C14.0675 36.9107 13.7216 37.0335 13.3395 37.0335C12.8762 37.0335 12.523 36.8432 12.2803 36.4621C12.0599 36.1237 11.9492 35.6794 11.9492 35.1292C11.9492 34.6215 12.082 33.9954 12.3466 33.2506C12.376 33.1742 12.4642 32.9418 12.6112 32.5522C12.6262 32.5099 12.7071 32.3196 12.8541 31.9811C13.0305 31.5665 13.137 31.3632 13.1737 31.3718C13.2108 31.3803 13.2219 31.4267 13.2068 31.5113C13.1847 31.63 13.1626 31.7187 13.1407 31.7778L12.6112 33.1998C12.4421 33.6569 12.3574 34.0377 12.3574 34.3423C12.3574 35.2223 12.7548 35.6624 13.549 35.6624C13.9904 35.6624 14.4055 35.5311 14.7956 35.269C15.2589 34.9558 15.4905 34.5665 15.4905 34.1011C15.4905 34.0841 15.36 33.9827 15.0987 33.7965C14.8377 33.6105 14.7074 33.4369 14.7074 33.2759C14.7074 33.0814 14.7552 32.8613 14.8506 32.6157C15.0124 32.2094 15.1373 31.8838 15.226 31.6382ZM15.1219 39.4909C14.9895 39.7807 14.864 39.9255 14.7463 39.9255C14.6652 39.8511 14.5475 39.7473 14.393 39.6151C14.2385 39.4828 14.161 39.3914 14.161 39.3419L14.1831 39.2922C14.2274 39.1847 14.3082 38.9858 14.4259 38.6957C14.4554 38.6296 14.5291 38.4847 14.6469 38.261L14.6909 38.1989C14.7203 38.2323 14.7719 38.2737 14.8461 38.3231C14.9858 38.4393 15.0706 38.5221 15.1 38.5715C15.1808 38.6876 15.2324 38.7995 15.2545 38.907C15.2766 39.0479 15.2324 39.2425 15.1219 39.4909ZM13.9839 39.5653C13.8515 39.8551 13.7265 40 13.6087 40C13.5272 39.9255 13.4094 39.822 13.2549 39.6895C13.1004 39.5573 13.023 39.4661 13.023 39.4164L13.0451 39.3667C13.0894 39.2591 13.1702 39.0602 13.2879 38.7704C13.3174 38.7043 13.3911 38.5591 13.5093 38.3358L13.5534 38.2737C13.5823 38.3067 13.6344 38.3481 13.7081 38.3976C13.8477 38.5137 13.9325 38.5965 13.962 38.6462C14.0428 38.7621 14.0943 38.8739 14.1165 38.9815C14.1391 39.1226 14.0943 39.3169 13.9839 39.5653ZM10.7883 30.8829C10.8254 30.8578 10.8701 30.8074 10.9221 30.7316C11.0854 30.4882 11.1633 30.1396 11.1559 29.6864L11.1448 28.8425C11.1374 28.4228 11.1597 28.1415 11.2115 27.9987L11.6131 26.8777C11.6279 26.8695 11.6464 26.8611 11.6688 26.8526C11.6761 26.8695 11.6799 26.9031 11.6799 26.9535C11.6799 27.0963 11.6726 27.2934 11.6576 27.5452C11.6428 27.8393 11.6352 28.041 11.6352 28.15C11.6205 28.7796 11.5946 29.2541 11.5573 29.573C11.4758 30.2197 11.3123 30.715 11.0668 31.0592C11.0371 31.1012 10.9442 31.2146 10.7883 31.3993V30.8829ZM13.0683 24.9078L14.4693 23.6008C14.739 23.3468 15.0603 23.0213 15.4328 22.6234C15.535 22.5138 15.8229 22.1919 16.2973 21.6591C16.8008 21.0923 17.0743 20.7792 17.1187 20.7199C17.1187 20.7624 17.111 20.8003 17.0963 20.8341C17.0015 21.3416 16.6041 22.0016 15.9036 22.814C15.5823 23.1864 15.097 23.6854 14.4473 24.3113C14.4182 24.3368 13.8782 24.8276 12.8277 25.7836L12.0726 26.4688C11.7658 26.7481 11.6055 26.8747 11.5908 26.8495C11.7074 26.4773 11.8605 26.1728 12.0502 25.9358C12.2257 25.7243 12.5647 25.3818 13.0683 24.9078ZM10.4724 27.5002C10.3405 27.7936 10.2154 27.9403 10.0981 27.9403C10.0174 27.8649 9.90002 27.7599 9.74608 27.6259C9.59213 27.492 9.51493 27.3995 9.51493 27.3494L9.53699 27.299C9.58111 27.1901 9.6616 26.9887 9.77893 26.695C9.80826 26.628 9.88171 26.4813 9.99905 26.2548L10.0429 26.1919C10.0723 26.2257 10.1237 26.2676 10.1976 26.3177C10.3367 26.4353 10.4212 26.5191 10.4505 26.5692C10.531 26.6868 10.5824 26.8 10.6045 26.9089C10.6265 27.0516 10.5824 27.2487 10.4724 27.5002ZM9.90002 25.9404C9.76814 26.2341 9.64282 26.3808 9.52596 26.3808C9.50414 26.3808 9.38633 26.2798 9.17349 26.0787C9.01955 25.9363 8.94258 25.8397 8.94258 25.7896L8.96463 25.7392C9.00852 25.6303 9.08924 25.4289 9.20658 25.1352C9.23591 25.0682 9.30913 24.9215 9.42646 24.695L9.47058 24.6321C9.49991 24.6659 9.5513 24.7078 9.62499 24.7579C9.76438 24.8755 9.84863 24.9593 9.87796 25.0094C9.95868 25.127 10.0101 25.2403 10.0321 25.3492C10.054 25.4918 10.0101 25.6889 9.90002 25.9404ZM9.33846 27.5756C9.20658 27.869 9.08197 28.0157 8.96463 28.0157C8.88344 27.9403 8.76611 27.8355 8.61216 27.7013C8.45822 27.5674 8.38102 27.4751 8.38102 27.4248L8.40308 27.3744C8.44719 27.2655 8.52768 27.0641 8.64502 26.7706C8.67435 26.7037 8.7478 26.5567 8.8656 26.3305L8.90949 26.2676C8.93835 26.3011 8.99021 26.343 9.06366 26.3931C9.20282 26.5107 9.2873 26.5945 9.31664 26.6449C9.39713 26.7622 9.44852 26.8755 9.47058 26.9843C9.4931 27.1272 9.44852 27.3241 9.33846 27.5756ZM6.34755 32.1418L6.21889 32.7709C6.10463 33.1732 6.01185 33.443 5.94055 33.5797C5.80435 33.8536 5.6293 34.042 5.41517 34.1445L5.02896 34.3374C4.85756 34.423 4.68983 34.4657 4.52506 34.4657C4.48941 34.4657 4.46793 34.4485 4.46084 34.4143C4.43936 34.3374 4.53945 34.1959 4.76135 33.9906C4.83265 33.9223 4.97548 33.7895 5.18984 33.5925C5.46864 33.3357 5.69717 33.0193 5.87611 32.6425C5.91907 32.5569 6.01185 32.253 6.15468 31.7309L6.28334 31.2685C6.35464 31.0035 6.41177 30.8707 6.45519 30.8707C6.49038 30.9307 6.50867 30.9735 6.50867 30.999C6.50867 31.2388 6.45519 31.6197 6.34755 32.1418ZM4.96345 30.04C4.89059 30.2169 4.84696 30.3183 4.83258 30.3435C4.77456 30.4449 4.72375 30.4956 4.68035 30.4956C4.60053 30.4279 4.54971 30.3942 4.5279 30.3942C4.3172 30.3942 4.05267 30.5632 3.73361 30.9008C3.34146 31.3142 3.14561 31.6054 3.14561 31.7742C3.14561 31.8419 3.17114 31.9134 3.22195 31.9895L3.41757 32.1035C3.70089 32.1964 3.84221 32.4284 3.84221 32.7997C3.84221 33.2049 3.777 33.6542 3.6466 34.1479C3.51549 34.6416 3.35608 35.0572 3.16742 35.395C2.68106 36.2558 2.0608 36.6862 1.3062 36.6862C0.892228 36.6862 0.571543 36.5323 0.342515 36.2243C0.114183 35.9161 1.71172e-05 35.5172 1.71172e-05 35.0279C1.71172e-05 34.3188 0.170338 33.5383 0.511675 32.6857L1.07717 31.2676C1.15699 31.0652 1.215 30.9641 1.25166 30.9641C1.30248 30.9641 1.32778 31.0019 1.32778 31.078C1.32778 31.1369 1.32058 31.1835 1.3062 31.2172C0.703808 32.7449 0.402382 33.7534 0.402382 34.2429C0.402382 34.6142 0.525598 34.8969 0.772725 35.0912C0.982957 35.2599 1.25538 35.3443 1.58883 35.3443C2.17683 35.3443 2.65948 35.1079 3.03702 34.6353C3.33426 34.2638 3.483 33.9473 3.483 33.686C3.483 33.5931 3.35956 33.5087 3.11313 33.4325C2.78641 33.3314 2.62305 33.1079 2.62305 32.7619C2.62305 32.1794 2.8841 31.4999 3.40666 30.7235C3.6097 30.4279 3.7951 30.1876 3.96194 30.0019C4.4193 29.5038 4.79266 29.2295 5.08318 29.1789C5.14839 29.2295 5.17739 29.2846 5.1702 29.3435C5.14119 29.5378 5.07228 29.7698 4.96345 30.04Z" fill="white"/>
</svg>
