<svg width="64" height="64" viewBox="0 0 64 64" fill="none" xmlns="http://www.w3.org/2000/svg">
<path d="M32 42.0007C20.96 42.0007 12 33.334 12 22.6673C12 12.0007 20.96 3.33398 32 3.33398C43.04 3.33398 52 12.0007 52 22.6673C52 33.334 43.04 42.0007 32 42.0007ZM32 7.33398C23.1733 7.33398 16 14.214 16 22.6673C16 31.1207 23.1733 38.0007 32 38.0007C40.8267 38.0007 48 31.1207 48 22.6673C48 14.214 40.8267 7.33398 32 7.33398Z" fill="#FC5C04"/>
<path d="M41.6527 60.6669C40.906 60.6669 40.1593 60.4802 39.386 60.1335L32.2127 56.7469C32.1327 56.7202 31.8393 56.7202 31.7327 56.7469L24.6127 60.1069C23.0394 60.8536 21.3861 60.8269 20.1061 60.0002C18.7727 59.1469 17.9994 57.5736 18.0261 55.7069L18.0527 36.0269C18.0527 34.9336 18.906 33.9736 20.0527 34.0269C21.146 34.0269 22.0527 34.9336 22.0527 36.0269L22.0261 55.7069C22.0261 56.2936 22.186 56.5869 22.266 56.6136C22.3194 56.6403 22.5594 56.6669 22.9327 56.4802L30.0794 53.0936C31.226 52.5603 32.7994 52.5603 33.9461 53.0936L41.1194 56.4802C41.4927 56.6669 41.7327 56.6403 41.7861 56.6136C41.8661 56.5603 42.0261 56.2669 42.0261 55.7069V35.5469C42.0261 34.4535 42.9327 33.5469 44.0261 33.5469C45.1194 33.5469 46.0261 34.4535 46.0261 35.5469V55.7069C46.0261 57.6003 45.2527 59.1469 43.9194 60.0002C43.226 60.4536 42.4527 60.6669 41.6527 60.6669Z" fill="#FC5C04"/>
</svg>
