<svg width="64" height="64" viewBox="0 0 64 64" fill="none" xmlns="http://www.w3.org/2000/svg">
<path d="M28 34H32V38H28V34ZM28 26H36V30H28V26Z" fill="#FC5C04"/>
<path d="M42 46H22C21.4696 46 20.9609 45.7893 20.5858 45.4142C20.2107 45.0391 20 44.5304 20 44V20C20 19.4696 20.2107 18.9609 20.5858 18.5858C20.9609 18.2107 21.4696 18 22 18H42C42.5304 18 43.0391 18.2107 43.4142 18.5858C43.7893 18.9609 44 19.4696 44 20V44C44 44.5304 43.7893 45.0391 43.4142 45.4142C43.0391 45.7893 42.5304 46 42 46ZM24 42H40V22H24V42Z" fill="#FC5C04"/>
<path d="M32 2C31.6458 1.99982 31.298 2.09369 30.992 2.272L6.992 16.272C6.69004 16.4482 6.43955 16.7005 6.26549 17.0037C6.09144 17.3069 5.9999 17.6504 6 18V46C5.9999 46.3496 6.09144 46.6931 6.26549 46.9963C6.43955 47.2995 6.69004 47.5518 6.992 47.728L30.992 61.728C31.2979 61.9065 31.6458 62.0006 32 62.0006C32.3542 62.0006 32.7021 61.9065 33.008 61.728L55.008 48.894L52.992 45.44L32 57.684L10 44.852V19.15L32 6.316L54 19.148V34H58V18C58.0001 17.6504 57.9086 17.3069 57.7345 17.0037C57.5604 16.7005 57.31 16.4482 57.008 16.272L33.008 2.272C32.702 2.09369 32.3542 1.99982 32 2Z" fill="#FC5C04"/>
</svg>
